<mxfile host="www.draw.io" modified="2020-02-16T11:55:52.637Z" agent="Mozilla/5.0 (Macintosh; Intel Mac OS X 10_13_1) AppleWebKit/537.36 (KHTML, like Gecko) Chrome/80.0.3987.106 Safari/537.36" etag="RTajWS6xi8X65zCKEZBq" version="12.7.0" type="github">
  <diagram id="flqGjVPY7W-KKDLiaffL" name="第 1 页">
    <mxGraphModel dx="946" dy="565" grid="0" gridSize="10" guides="1" tooltips="1" connect="1" arrows="1" fold="1" page="1" pageScale="1" pageWidth="3300" pageHeight="4681" math="0" shadow="0">
      <root>
        <mxCell id="0"/>
        <mxCell id="1" parent="0"/>
        <mxCell id="X3XVsHEC-CsgKgmJ9qrO-1" value="" style="edgeStyle=entityRelationEdgeStyle;fontSize=12;html=1;endArrow=ERzeroToMany;endFill=1;exitX=1;exitY=0.5;exitDx=0;exitDy=0;entryX=0;entryY=0.5;entryDx=0;entryDy=0;" edge="1" parent="1" source="X3XVsHEC-CsgKgmJ9qrO-3" target="X3XVsHEC-CsgKgmJ9qrO-127">
          <mxGeometry width="100" height="100" relative="1" as="geometry">
            <mxPoint x="480" y="1699" as="sourcePoint"/>
            <mxPoint x="570" y="1777" as="targetPoint"/>
          </mxGeometry>
        </mxCell>
        <mxCell id="X3XVsHEC-CsgKgmJ9qrO-2" value="one_user_info" style="swimlane;fontStyle=0;childLayout=stackLayout;horizontal=1;startSize=26;fillColor=#e0e0e0;horizontalStack=0;resizeParent=1;resizeParentMax=0;resizeLast=0;collapsible=1;marginBottom=0;swimlaneFillColor=#ffffff;align=center;fontSize=14;" vertex="1" parent="1">
          <mxGeometry x="305" y="1650" width="165" height="442" as="geometry"/>
        </mxCell>
        <mxCell id="X3XVsHEC-CsgKgmJ9qrO-3" value="id" style="shape=partialRectangle;top=0;left=0;right=0;bottom=1;align=left;verticalAlign=top;fillColor=none;spacingLeft=34;spacingRight=4;overflow=hidden;rotatable=0;points=[[0,0.5],[1,0.5]];portConstraint=eastwest;dropTarget=0;fontSize=12;" vertex="1" parent="X3XVsHEC-CsgKgmJ9qrO-2">
          <mxGeometry y="26" width="165" height="26" as="geometry"/>
        </mxCell>
        <mxCell id="X3XVsHEC-CsgKgmJ9qrO-4" value="PK" style="shape=partialRectangle;top=0;left=0;bottom=0;fillColor=none;align=left;verticalAlign=top;spacingLeft=4;spacingRight=4;overflow=hidden;rotatable=0;points=[];portConstraint=eastwest;part=1;fontSize=12;" vertex="1" connectable="0" parent="X3XVsHEC-CsgKgmJ9qrO-3">
          <mxGeometry width="30" height="26" as="geometry"/>
        </mxCell>
        <mxCell id="X3XVsHEC-CsgKgmJ9qrO-5" value="gmt_create" style="shape=partialRectangle;top=0;left=0;right=0;bottom=0;align=left;verticalAlign=top;fillColor=none;spacingLeft=34;spacingRight=4;overflow=hidden;rotatable=0;points=[[0,0.5],[1,0.5]];portConstraint=eastwest;dropTarget=0;fontSize=12;" vertex="1" parent="X3XVsHEC-CsgKgmJ9qrO-2">
          <mxGeometry y="52" width="165" height="26" as="geometry"/>
        </mxCell>
        <mxCell id="X3XVsHEC-CsgKgmJ9qrO-6" value="" style="shape=partialRectangle;top=0;left=0;bottom=0;fillColor=none;align=left;verticalAlign=top;spacingLeft=4;spacingRight=4;overflow=hidden;rotatable=0;points=[];portConstraint=eastwest;part=1;fontSize=12;" vertex="1" connectable="0" parent="X3XVsHEC-CsgKgmJ9qrO-5">
          <mxGeometry width="30" height="26" as="geometry"/>
        </mxCell>
        <mxCell id="X3XVsHEC-CsgKgmJ9qrO-7" value="gmt_modified" style="shape=partialRectangle;top=0;left=0;right=0;bottom=0;align=left;verticalAlign=top;fillColor=none;spacingLeft=34;spacingRight=4;overflow=hidden;rotatable=0;points=[[0,0.5],[1,0.5]];portConstraint=eastwest;dropTarget=0;fontSize=12;" vertex="1" parent="X3XVsHEC-CsgKgmJ9qrO-2">
          <mxGeometry y="78" width="165" height="26" as="geometry"/>
        </mxCell>
        <mxCell id="X3XVsHEC-CsgKgmJ9qrO-8" value="" style="shape=partialRectangle;top=0;left=0;bottom=0;fillColor=none;align=left;verticalAlign=top;spacingLeft=4;spacingRight=4;overflow=hidden;rotatable=0;points=[];portConstraint=eastwest;part=1;fontSize=12;" vertex="1" connectable="0" parent="X3XVsHEC-CsgKgmJ9qrO-7">
          <mxGeometry width="30" height="26" as="geometry"/>
        </mxCell>
        <mxCell id="X3XVsHEC-CsgKgmJ9qrO-9" value="name" style="shape=partialRectangle;top=0;left=0;right=0;bottom=0;align=left;verticalAlign=top;fillColor=none;spacingLeft=34;spacingRight=4;overflow=hidden;rotatable=0;points=[[0,0.5],[1,0.5]];portConstraint=eastwest;dropTarget=0;fontSize=12;" vertex="1" parent="X3XVsHEC-CsgKgmJ9qrO-2">
          <mxGeometry y="104" width="165" height="26" as="geometry"/>
        </mxCell>
        <mxCell id="X3XVsHEC-CsgKgmJ9qrO-10" value="" style="shape=partialRectangle;top=0;left=0;bottom=0;fillColor=none;align=left;verticalAlign=top;spacingLeft=4;spacingRight=4;overflow=hidden;rotatable=0;points=[];portConstraint=eastwest;part=1;fontSize=12;" vertex="1" connectable="0" parent="X3XVsHEC-CsgKgmJ9qrO-9">
          <mxGeometry width="30" height="26" as="geometry"/>
        </mxCell>
        <mxCell id="X3XVsHEC-CsgKgmJ9qrO-11" value="nice_name" style="shape=partialRectangle;top=0;left=0;right=0;bottom=0;align=left;verticalAlign=top;fillColor=none;spacingLeft=34;spacingRight=4;overflow=hidden;rotatable=0;points=[[0,0.5],[1,0.5]];portConstraint=eastwest;dropTarget=0;fontSize=12;" vertex="1" parent="X3XVsHEC-CsgKgmJ9qrO-2">
          <mxGeometry y="130" width="165" height="26" as="geometry"/>
        </mxCell>
        <mxCell id="X3XVsHEC-CsgKgmJ9qrO-12" value="" style="shape=partialRectangle;top=0;left=0;bottom=0;fillColor=none;align=left;verticalAlign=top;spacingLeft=4;spacingRight=4;overflow=hidden;rotatable=0;points=[];portConstraint=eastwest;part=1;fontSize=12;" vertex="1" connectable="0" parent="X3XVsHEC-CsgKgmJ9qrO-11">
          <mxGeometry width="30" height="26" as="geometry"/>
        </mxCell>
        <mxCell id="X3XVsHEC-CsgKgmJ9qrO-13" value="mobile_number" style="shape=partialRectangle;top=0;left=0;right=0;bottom=0;align=left;verticalAlign=top;fillColor=none;spacingLeft=34;spacingRight=4;overflow=hidden;rotatable=0;points=[[0,0.5],[1,0.5]];portConstraint=eastwest;dropTarget=0;fontSize=12;" vertex="1" parent="X3XVsHEC-CsgKgmJ9qrO-2">
          <mxGeometry y="156" width="165" height="26" as="geometry"/>
        </mxCell>
        <mxCell id="X3XVsHEC-CsgKgmJ9qrO-14" value="" style="shape=partialRectangle;top=0;left=0;bottom=0;fillColor=none;align=left;verticalAlign=top;spacingLeft=4;spacingRight=4;overflow=hidden;rotatable=0;points=[];portConstraint=eastwest;part=1;fontSize=12;" vertex="1" connectable="0" parent="X3XVsHEC-CsgKgmJ9qrO-13">
          <mxGeometry width="30" height="26" as="geometry"/>
        </mxCell>
        <mxCell id="X3XVsHEC-CsgKgmJ9qrO-199" value="mood" style="shape=partialRectangle;top=0;left=0;right=0;bottom=0;align=left;verticalAlign=top;fillColor=none;spacingLeft=34;spacingRight=4;overflow=hidden;rotatable=0;points=[[0,0.5],[1,0.5]];portConstraint=eastwest;dropTarget=0;fontSize=12;" vertex="1" parent="X3XVsHEC-CsgKgmJ9qrO-2">
          <mxGeometry y="182" width="165" height="26" as="geometry"/>
        </mxCell>
        <mxCell id="X3XVsHEC-CsgKgmJ9qrO-200" value="" style="shape=partialRectangle;top=0;left=0;bottom=0;fillColor=none;align=left;verticalAlign=top;spacingLeft=4;spacingRight=4;overflow=hidden;rotatable=0;points=[];portConstraint=eastwest;part=1;fontSize=12;" vertex="1" connectable="0" parent="X3XVsHEC-CsgKgmJ9qrO-199">
          <mxGeometry width="30" height="26" as="geometry"/>
        </mxCell>
        <mxCell id="X3XVsHEC-CsgKgmJ9qrO-15" value="openid" style="shape=partialRectangle;top=0;left=0;right=0;bottom=0;align=left;verticalAlign=top;fillColor=none;spacingLeft=34;spacingRight=4;overflow=hidden;rotatable=0;points=[[0,0.5],[1,0.5]];portConstraint=eastwest;dropTarget=0;fontSize=12;" vertex="1" parent="X3XVsHEC-CsgKgmJ9qrO-2">
          <mxGeometry y="208" width="165" height="26" as="geometry"/>
        </mxCell>
        <mxCell id="X3XVsHEC-CsgKgmJ9qrO-16" value="" style="shape=partialRectangle;top=0;left=0;bottom=0;fillColor=none;align=left;verticalAlign=top;spacingLeft=4;spacingRight=4;overflow=hidden;rotatable=0;points=[];portConstraint=eastwest;part=1;fontSize=12;" vertex="1" connectable="0" parent="X3XVsHEC-CsgKgmJ9qrO-15">
          <mxGeometry width="30" height="26" as="geometry"/>
        </mxCell>
        <mxCell id="X3XVsHEC-CsgKgmJ9qrO-17" value="gmt_modified" style="shape=partialRectangle;top=0;left=0;right=0;bottom=0;align=left;verticalAlign=top;fillColor=none;spacingLeft=34;spacingRight=4;overflow=hidden;rotatable=0;points=[[0,0.5],[1,0.5]];portConstraint=eastwest;dropTarget=0;fontSize=12;" vertex="1" parent="X3XVsHEC-CsgKgmJ9qrO-2">
          <mxGeometry y="234" width="165" height="26" as="geometry"/>
        </mxCell>
        <mxCell id="X3XVsHEC-CsgKgmJ9qrO-18" value="" style="shape=partialRectangle;top=0;left=0;bottom=0;fillColor=none;align=left;verticalAlign=top;spacingLeft=4;spacingRight=4;overflow=hidden;rotatable=0;points=[];portConstraint=eastwest;part=1;fontSize=12;" vertex="1" connectable="0" parent="X3XVsHEC-CsgKgmJ9qrO-17">
          <mxGeometry width="30" height="26" as="geometry"/>
        </mxCell>
        <mxCell id="X3XVsHEC-CsgKgmJ9qrO-19" value="hometown_id" style="shape=partialRectangle;top=0;left=0;right=0;bottom=0;align=left;verticalAlign=top;fillColor=none;spacingLeft=34;spacingRight=4;overflow=hidden;rotatable=0;points=[[0,0.5],[1,0.5]];portConstraint=eastwest;dropTarget=0;fontSize=12;" vertex="1" parent="X3XVsHEC-CsgKgmJ9qrO-2">
          <mxGeometry y="260" width="165" height="26" as="geometry"/>
        </mxCell>
        <mxCell id="X3XVsHEC-CsgKgmJ9qrO-20" value="FK" style="shape=partialRectangle;top=0;left=0;bottom=0;fillColor=none;align=left;verticalAlign=top;spacingLeft=4;spacingRight=4;overflow=hidden;rotatable=0;points=[];portConstraint=eastwest;part=1;fontSize=12;" vertex="1" connectable="0" parent="X3XVsHEC-CsgKgmJ9qrO-19">
          <mxGeometry width="30" height="26" as="geometry"/>
        </mxCell>
        <mxCell id="X3XVsHEC-CsgKgmJ9qrO-21" value="hometown_name" style="shape=partialRectangle;top=0;left=0;right=0;bottom=0;align=left;verticalAlign=top;fillColor=none;spacingLeft=34;spacingRight=4;overflow=hidden;rotatable=0;points=[[0,0.5],[1,0.5]];portConstraint=eastwest;dropTarget=0;fontSize=12;" vertex="1" parent="X3XVsHEC-CsgKgmJ9qrO-2">
          <mxGeometry y="286" width="165" height="26" as="geometry"/>
        </mxCell>
        <mxCell id="X3XVsHEC-CsgKgmJ9qrO-22" value="" style="shape=partialRectangle;top=0;left=0;bottom=0;fillColor=none;align=left;verticalAlign=top;spacingLeft=4;spacingRight=4;overflow=hidden;rotatable=0;points=[];portConstraint=eastwest;part=1;fontSize=12;" vertex="1" connectable="0" parent="X3XVsHEC-CsgKgmJ9qrO-21">
          <mxGeometry width="30" height="26" as="geometry"/>
        </mxCell>
        <mxCell id="X3XVsHEC-CsgKgmJ9qrO-23" value="workcity_id" style="shape=partialRectangle;top=0;left=0;right=0;bottom=0;align=left;verticalAlign=top;fillColor=none;spacingLeft=34;spacingRight=4;overflow=hidden;rotatable=0;points=[[0,0.5],[1,0.5]];portConstraint=eastwest;dropTarget=0;fontSize=12;" vertex="1" parent="X3XVsHEC-CsgKgmJ9qrO-2">
          <mxGeometry y="312" width="165" height="26" as="geometry"/>
        </mxCell>
        <mxCell id="X3XVsHEC-CsgKgmJ9qrO-24" value="FK" style="shape=partialRectangle;top=0;left=0;bottom=0;fillColor=none;align=left;verticalAlign=top;spacingLeft=4;spacingRight=4;overflow=hidden;rotatable=0;points=[];portConstraint=eastwest;part=1;fontSize=12;" vertex="1" connectable="0" parent="X3XVsHEC-CsgKgmJ9qrO-23">
          <mxGeometry width="30" height="26" as="geometry"/>
        </mxCell>
        <mxCell id="X3XVsHEC-CsgKgmJ9qrO-25" value="workcity_name" style="shape=partialRectangle;top=0;left=0;right=0;bottom=0;align=left;verticalAlign=top;fillColor=none;spacingLeft=34;spacingRight=4;overflow=hidden;rotatable=0;points=[[0,0.5],[1,0.5]];portConstraint=eastwest;dropTarget=0;fontSize=12;" vertex="1" parent="X3XVsHEC-CsgKgmJ9qrO-2">
          <mxGeometry y="338" width="165" height="26" as="geometry"/>
        </mxCell>
        <mxCell id="X3XVsHEC-CsgKgmJ9qrO-26" value="" style="shape=partialRectangle;top=0;left=0;bottom=0;fillColor=none;align=left;verticalAlign=top;spacingLeft=4;spacingRight=4;overflow=hidden;rotatable=0;points=[];portConstraint=eastwest;part=1;fontSize=12;" vertex="1" connectable="0" parent="X3XVsHEC-CsgKgmJ9qrO-25">
          <mxGeometry width="30" height="26" as="geometry"/>
        </mxCell>
        <mxCell id="X3XVsHEC-CsgKgmJ9qrO-27" value="head_img" style="shape=partialRectangle;top=0;left=0;right=0;bottom=0;align=left;verticalAlign=top;fillColor=none;spacingLeft=34;spacingRight=4;overflow=hidden;rotatable=0;points=[[0,0.5],[1,0.5]];portConstraint=eastwest;dropTarget=0;fontSize=12;" vertex="1" parent="X3XVsHEC-CsgKgmJ9qrO-2">
          <mxGeometry y="364" width="165" height="26" as="geometry"/>
        </mxCell>
        <mxCell id="X3XVsHEC-CsgKgmJ9qrO-28" value="" style="shape=partialRectangle;top=0;left=0;bottom=0;fillColor=none;align=left;verticalAlign=top;spacingLeft=4;spacingRight=4;overflow=hidden;rotatable=0;points=[];portConstraint=eastwest;part=1;fontSize=12;" vertex="1" connectable="0" parent="X3XVsHEC-CsgKgmJ9qrO-27">
          <mxGeometry width="30" height="26" as="geometry"/>
        </mxCell>
        <mxCell id="X3XVsHEC-CsgKgmJ9qrO-29" value="user_type" style="shape=partialRectangle;top=0;left=0;right=0;bottom=0;align=left;verticalAlign=top;fillColor=none;spacingLeft=34;spacingRight=4;overflow=hidden;rotatable=0;points=[[0,0.5],[1,0.5]];portConstraint=eastwest;dropTarget=0;fontSize=12;" vertex="1" parent="X3XVsHEC-CsgKgmJ9qrO-2">
          <mxGeometry y="390" width="165" height="26" as="geometry"/>
        </mxCell>
        <mxCell id="X3XVsHEC-CsgKgmJ9qrO-30" value="" style="shape=partialRectangle;top=0;left=0;bottom=0;fillColor=none;align=left;verticalAlign=top;spacingLeft=4;spacingRight=4;overflow=hidden;rotatable=0;points=[];portConstraint=eastwest;part=1;fontSize=12;" vertex="1" connectable="0" parent="X3XVsHEC-CsgKgmJ9qrO-29">
          <mxGeometry width="30" height="26" as="geometry"/>
        </mxCell>
        <mxCell id="X3XVsHEC-CsgKgmJ9qrO-31" value="status" style="shape=partialRectangle;top=0;left=0;right=0;bottom=0;align=left;verticalAlign=top;fillColor=none;spacingLeft=34;spacingRight=4;overflow=hidden;rotatable=0;points=[[0,0.5],[1,0.5]];portConstraint=eastwest;dropTarget=0;fontSize=12;" vertex="1" parent="X3XVsHEC-CsgKgmJ9qrO-2">
          <mxGeometry y="416" width="165" height="26" as="geometry"/>
        </mxCell>
        <mxCell id="X3XVsHEC-CsgKgmJ9qrO-32" value="" style="shape=partialRectangle;top=0;left=0;bottom=0;fillColor=none;align=left;verticalAlign=top;spacingLeft=4;spacingRight=4;overflow=hidden;rotatable=0;points=[];portConstraint=eastwest;part=1;fontSize=12;" vertex="1" connectable="0" parent="X3XVsHEC-CsgKgmJ9qrO-31">
          <mxGeometry width="30" height="26" as="geometry"/>
        </mxCell>
        <mxCell id="X3XVsHEC-CsgKgmJ9qrO-33" value="one_district" style="swimlane;fontStyle=0;childLayout=stackLayout;horizontal=1;startSize=26;fillColor=#e0e0e0;horizontalStack=0;resizeParent=1;resizeParentMax=0;resizeLast=0;collapsible=1;marginBottom=0;swimlaneFillColor=#ffffff;align=center;fontSize=14;" vertex="1" parent="1">
          <mxGeometry x="72.5" y="1650" width="165" height="208" as="geometry"/>
        </mxCell>
        <mxCell id="X3XVsHEC-CsgKgmJ9qrO-34" value="id" style="shape=partialRectangle;top=0;left=0;right=0;bottom=1;align=left;verticalAlign=top;fillColor=none;spacingLeft=34;spacingRight=4;overflow=hidden;rotatable=0;points=[[0,0.5],[1,0.5]];portConstraint=eastwest;dropTarget=0;fontSize=12;" vertex="1" parent="X3XVsHEC-CsgKgmJ9qrO-33">
          <mxGeometry y="26" width="165" height="26" as="geometry"/>
        </mxCell>
        <mxCell id="X3XVsHEC-CsgKgmJ9qrO-35" value="PK" style="shape=partialRectangle;top=0;left=0;bottom=0;fillColor=none;align=left;verticalAlign=top;spacingLeft=4;spacingRight=4;overflow=hidden;rotatable=0;points=[];portConstraint=eastwest;part=1;fontSize=12;" vertex="1" connectable="0" parent="X3XVsHEC-CsgKgmJ9qrO-34">
          <mxGeometry width="30" height="26" as="geometry"/>
        </mxCell>
        <mxCell id="X3XVsHEC-CsgKgmJ9qrO-36" value="gmt_create" style="shape=partialRectangle;top=0;left=0;right=0;bottom=0;align=left;verticalAlign=top;fillColor=none;spacingLeft=34;spacingRight=4;overflow=hidden;rotatable=0;points=[[0,0.5],[1,0.5]];portConstraint=eastwest;dropTarget=0;fontSize=12;" vertex="1" parent="X3XVsHEC-CsgKgmJ9qrO-33">
          <mxGeometry y="52" width="165" height="26" as="geometry"/>
        </mxCell>
        <mxCell id="X3XVsHEC-CsgKgmJ9qrO-37" value="" style="shape=partialRectangle;top=0;left=0;bottom=0;fillColor=none;align=left;verticalAlign=top;spacingLeft=4;spacingRight=4;overflow=hidden;rotatable=0;points=[];portConstraint=eastwest;part=1;fontSize=12;" vertex="1" connectable="0" parent="X3XVsHEC-CsgKgmJ9qrO-36">
          <mxGeometry width="30" height="26" as="geometry"/>
        </mxCell>
        <mxCell id="X3XVsHEC-CsgKgmJ9qrO-38" value="gmt_modified" style="shape=partialRectangle;top=0;left=0;right=0;bottom=0;align=left;verticalAlign=top;fillColor=none;spacingLeft=34;spacingRight=4;overflow=hidden;rotatable=0;points=[[0,0.5],[1,0.5]];portConstraint=eastwest;dropTarget=0;fontSize=12;" vertex="1" parent="X3XVsHEC-CsgKgmJ9qrO-33">
          <mxGeometry y="78" width="165" height="26" as="geometry"/>
        </mxCell>
        <mxCell id="X3XVsHEC-CsgKgmJ9qrO-39" value="" style="shape=partialRectangle;top=0;left=0;bottom=0;fillColor=none;align=left;verticalAlign=top;spacingLeft=4;spacingRight=4;overflow=hidden;rotatable=0;points=[];portConstraint=eastwest;part=1;fontSize=12;" vertex="1" connectable="0" parent="X3XVsHEC-CsgKgmJ9qrO-38">
          <mxGeometry width="30" height="26" as="geometry"/>
        </mxCell>
        <mxCell id="X3XVsHEC-CsgKgmJ9qrO-40" value="name" style="shape=partialRectangle;top=0;left=0;right=0;bottom=0;align=left;verticalAlign=top;fillColor=none;spacingLeft=34;spacingRight=4;overflow=hidden;rotatable=0;points=[[0,0.5],[1,0.5]];portConstraint=eastwest;dropTarget=0;fontSize=12;" vertex="1" parent="X3XVsHEC-CsgKgmJ9qrO-33">
          <mxGeometry y="104" width="165" height="26" as="geometry"/>
        </mxCell>
        <mxCell id="X3XVsHEC-CsgKgmJ9qrO-41" value="" style="shape=partialRectangle;top=0;left=0;bottom=0;fillColor=none;align=left;verticalAlign=top;spacingLeft=4;spacingRight=4;overflow=hidden;rotatable=0;points=[];portConstraint=eastwest;part=1;fontSize=12;" vertex="1" connectable="0" parent="X3XVsHEC-CsgKgmJ9qrO-40">
          <mxGeometry width="30" height="26" as="geometry"/>
        </mxCell>
        <mxCell id="X3XVsHEC-CsgKgmJ9qrO-42" value="code" style="shape=partialRectangle;top=0;left=0;right=0;bottom=0;align=left;verticalAlign=top;fillColor=none;spacingLeft=34;spacingRight=4;overflow=hidden;rotatable=0;points=[[0,0.5],[1,0.5]];portConstraint=eastwest;dropTarget=0;fontSize=12;" vertex="1" parent="X3XVsHEC-CsgKgmJ9qrO-33">
          <mxGeometry y="130" width="165" height="26" as="geometry"/>
        </mxCell>
        <mxCell id="X3XVsHEC-CsgKgmJ9qrO-43" value="" style="shape=partialRectangle;top=0;left=0;bottom=0;fillColor=none;align=left;verticalAlign=top;spacingLeft=4;spacingRight=4;overflow=hidden;rotatable=0;points=[];portConstraint=eastwest;part=1;fontSize=12;" vertex="1" connectable="0" parent="X3XVsHEC-CsgKgmJ9qrO-42">
          <mxGeometry width="30" height="26" as="geometry"/>
        </mxCell>
        <mxCell id="X3XVsHEC-CsgKgmJ9qrO-44" value="parent_id" style="shape=partialRectangle;top=0;left=0;right=0;bottom=0;align=left;verticalAlign=top;fillColor=none;spacingLeft=34;spacingRight=4;overflow=hidden;rotatable=0;points=[[0,0.5],[1,0.5]];portConstraint=eastwest;dropTarget=0;fontSize=12;" vertex="1" parent="X3XVsHEC-CsgKgmJ9qrO-33">
          <mxGeometry y="156" width="165" height="26" as="geometry"/>
        </mxCell>
        <mxCell id="X3XVsHEC-CsgKgmJ9qrO-45" value="" style="shape=partialRectangle;top=0;left=0;bottom=0;fillColor=none;align=left;verticalAlign=top;spacingLeft=4;spacingRight=4;overflow=hidden;rotatable=0;points=[];portConstraint=eastwest;part=1;fontSize=12;" vertex="1" connectable="0" parent="X3XVsHEC-CsgKgmJ9qrO-44">
          <mxGeometry width="30" height="26" as="geometry"/>
        </mxCell>
        <mxCell id="X3XVsHEC-CsgKgmJ9qrO-46" value="status" style="shape=partialRectangle;top=0;left=0;right=0;bottom=0;align=left;verticalAlign=top;fillColor=none;spacingLeft=34;spacingRight=4;overflow=hidden;rotatable=0;points=[[0,0.5],[1,0.5]];portConstraint=eastwest;dropTarget=0;fontSize=12;" vertex="1" parent="X3XVsHEC-CsgKgmJ9qrO-33">
          <mxGeometry y="182" width="165" height="26" as="geometry"/>
        </mxCell>
        <mxCell id="X3XVsHEC-CsgKgmJ9qrO-47" value="" style="shape=partialRectangle;top=0;left=0;bottom=0;fillColor=none;align=left;verticalAlign=top;spacingLeft=4;spacingRight=4;overflow=hidden;rotatable=0;points=[];portConstraint=eastwest;part=1;fontSize=12;" vertex="1" connectable="0" parent="X3XVsHEC-CsgKgmJ9qrO-46">
          <mxGeometry width="30" height="26" as="geometry"/>
        </mxCell>
        <mxCell id="X3XVsHEC-CsgKgmJ9qrO-48" value="" style="edgeStyle=entityRelationEdgeStyle;fontSize=12;html=1;endArrow=ERzeroToMany;endFill=1;exitX=1;exitY=0.5;exitDx=0;exitDy=0;" edge="1" parent="1" source="X3XVsHEC-CsgKgmJ9qrO-34" target="X3XVsHEC-CsgKgmJ9qrO-19">
          <mxGeometry width="100" height="100" relative="1" as="geometry">
            <mxPoint x="150" y="2070" as="sourcePoint"/>
            <mxPoint x="250" y="1970" as="targetPoint"/>
          </mxGeometry>
        </mxCell>
        <mxCell id="X3XVsHEC-CsgKgmJ9qrO-49" value="" style="edgeStyle=entityRelationEdgeStyle;fontSize=12;html=1;endArrow=ERzeroToMany;endFill=1;exitX=1;exitY=0.5;exitDx=0;exitDy=0;entryX=0;entryY=0.5;entryDx=0;entryDy=0;" edge="1" parent="1" source="X3XVsHEC-CsgKgmJ9qrO-34" target="X3XVsHEC-CsgKgmJ9qrO-23">
          <mxGeometry width="100" height="100" relative="1" as="geometry">
            <mxPoint x="247.5" y="1699" as="sourcePoint"/>
            <mxPoint x="315" y="1907" as="targetPoint"/>
          </mxGeometry>
        </mxCell>
        <mxCell id="X3XVsHEC-CsgKgmJ9qrO-50" value="one_user_login" style="swimlane;fontStyle=0;childLayout=stackLayout;horizontal=1;startSize=26;fillColor=#e0e0e0;horizontalStack=0;resizeParent=1;resizeParentMax=0;resizeLast=0;collapsible=1;marginBottom=0;swimlaneFillColor=#ffffff;align=center;fontSize=14;" vertex="1" parent="1">
          <mxGeometry x="72.5" y="1450" width="165" height="182" as="geometry"/>
        </mxCell>
        <mxCell id="X3XVsHEC-CsgKgmJ9qrO-51" value="id" style="shape=partialRectangle;top=0;left=0;right=0;bottom=1;align=left;verticalAlign=top;fillColor=none;spacingLeft=34;spacingRight=4;overflow=hidden;rotatable=0;points=[[0,0.5],[1,0.5]];portConstraint=eastwest;dropTarget=0;fontSize=12;" vertex="1" parent="X3XVsHEC-CsgKgmJ9qrO-50">
          <mxGeometry y="26" width="165" height="26" as="geometry"/>
        </mxCell>
        <mxCell id="X3XVsHEC-CsgKgmJ9qrO-52" value="PK" style="shape=partialRectangle;top=0;left=0;bottom=0;fillColor=none;align=left;verticalAlign=top;spacingLeft=4;spacingRight=4;overflow=hidden;rotatable=0;points=[];portConstraint=eastwest;part=1;fontSize=12;" vertex="1" connectable="0" parent="X3XVsHEC-CsgKgmJ9qrO-51">
          <mxGeometry width="30" height="26" as="geometry"/>
        </mxCell>
        <mxCell id="X3XVsHEC-CsgKgmJ9qrO-53" value="gmt_create" style="shape=partialRectangle;top=0;left=0;right=0;bottom=0;align=left;verticalAlign=top;fillColor=none;spacingLeft=34;spacingRight=4;overflow=hidden;rotatable=0;points=[[0,0.5],[1,0.5]];portConstraint=eastwest;dropTarget=0;fontSize=12;" vertex="1" parent="X3XVsHEC-CsgKgmJ9qrO-50">
          <mxGeometry y="52" width="165" height="26" as="geometry"/>
        </mxCell>
        <mxCell id="X3XVsHEC-CsgKgmJ9qrO-54" value="" style="shape=partialRectangle;top=0;left=0;bottom=0;fillColor=none;align=left;verticalAlign=top;spacingLeft=4;spacingRight=4;overflow=hidden;rotatable=0;points=[];portConstraint=eastwest;part=1;fontSize=12;" vertex="1" connectable="0" parent="X3XVsHEC-CsgKgmJ9qrO-53">
          <mxGeometry width="30" height="26" as="geometry"/>
        </mxCell>
        <mxCell id="X3XVsHEC-CsgKgmJ9qrO-55" value="gmt_modified" style="shape=partialRectangle;top=0;left=0;right=0;bottom=0;align=left;verticalAlign=top;fillColor=none;spacingLeft=34;spacingRight=4;overflow=hidden;rotatable=0;points=[[0,0.5],[1,0.5]];portConstraint=eastwest;dropTarget=0;fontSize=12;" vertex="1" parent="X3XVsHEC-CsgKgmJ9qrO-50">
          <mxGeometry y="78" width="165" height="26" as="geometry"/>
        </mxCell>
        <mxCell id="X3XVsHEC-CsgKgmJ9qrO-56" value="" style="shape=partialRectangle;top=0;left=0;bottom=0;fillColor=none;align=left;verticalAlign=top;spacingLeft=4;spacingRight=4;overflow=hidden;rotatable=0;points=[];portConstraint=eastwest;part=1;fontSize=12;" vertex="1" connectable="0" parent="X3XVsHEC-CsgKgmJ9qrO-55">
          <mxGeometry width="30" height="26" as="geometry"/>
        </mxCell>
        <mxCell id="X3XVsHEC-CsgKgmJ9qrO-57" value="user_id" style="shape=partialRectangle;top=0;left=0;right=0;bottom=0;align=left;verticalAlign=top;fillColor=none;spacingLeft=34;spacingRight=4;overflow=hidden;rotatable=0;points=[[0,0.5],[1,0.5]];portConstraint=eastwest;dropTarget=0;fontSize=12;" vertex="1" parent="X3XVsHEC-CsgKgmJ9qrO-50">
          <mxGeometry y="104" width="165" height="26" as="geometry"/>
        </mxCell>
        <mxCell id="X3XVsHEC-CsgKgmJ9qrO-58" value="FK" style="shape=partialRectangle;top=0;left=0;bottom=0;fillColor=none;align=left;verticalAlign=top;spacingLeft=4;spacingRight=4;overflow=hidden;rotatable=0;points=[];portConstraint=eastwest;part=1;fontSize=12;" vertex="1" connectable="0" parent="X3XVsHEC-CsgKgmJ9qrO-57">
          <mxGeometry width="30" height="26" as="geometry"/>
        </mxCell>
        <mxCell id="X3XVsHEC-CsgKgmJ9qrO-59" value="status" style="shape=partialRectangle;top=0;left=0;right=0;bottom=0;align=left;verticalAlign=top;fillColor=none;spacingLeft=34;spacingRight=4;overflow=hidden;rotatable=0;points=[[0,0.5],[1,0.5]];portConstraint=eastwest;dropTarget=0;fontSize=12;" vertex="1" parent="X3XVsHEC-CsgKgmJ9qrO-50">
          <mxGeometry y="130" width="165" height="26" as="geometry"/>
        </mxCell>
        <mxCell id="X3XVsHEC-CsgKgmJ9qrO-60" value="" style="shape=partialRectangle;top=0;left=0;bottom=0;fillColor=none;align=left;verticalAlign=top;spacingLeft=4;spacingRight=4;overflow=hidden;rotatable=0;points=[];portConstraint=eastwest;part=1;fontSize=12;" vertex="1" connectable="0" parent="X3XVsHEC-CsgKgmJ9qrO-59">
          <mxGeometry width="30" height="26" as="geometry"/>
        </mxCell>
        <mxCell id="X3XVsHEC-CsgKgmJ9qrO-61" value="info" style="shape=partialRectangle;top=0;left=0;right=0;bottom=0;align=left;verticalAlign=top;fillColor=none;spacingLeft=34;spacingRight=4;overflow=hidden;rotatable=0;points=[[0,0.5],[1,0.5]];portConstraint=eastwest;dropTarget=0;fontSize=12;" vertex="1" parent="X3XVsHEC-CsgKgmJ9qrO-50">
          <mxGeometry y="156" width="165" height="26" as="geometry"/>
        </mxCell>
        <mxCell id="X3XVsHEC-CsgKgmJ9qrO-62" value="" style="shape=partialRectangle;top=0;left=0;bottom=0;fillColor=none;align=left;verticalAlign=top;spacingLeft=4;spacingRight=4;overflow=hidden;rotatable=0;points=[];portConstraint=eastwest;part=1;fontSize=12;" vertex="1" connectable="0" parent="X3XVsHEC-CsgKgmJ9qrO-61">
          <mxGeometry width="30" height="26" as="geometry"/>
        </mxCell>
        <mxCell id="X3XVsHEC-CsgKgmJ9qrO-63" value="" style="edgeStyle=entityRelationEdgeStyle;fontSize=12;html=1;endArrow=ERzeroToMany;endFill=1;" edge="1" parent="1" source="X3XVsHEC-CsgKgmJ9qrO-3" target="X3XVsHEC-CsgKgmJ9qrO-57">
          <mxGeometry width="100" height="100" relative="1" as="geometry">
            <mxPoint x="247.5" y="1699" as="sourcePoint"/>
            <mxPoint x="315" y="1959" as="targetPoint"/>
          </mxGeometry>
        </mxCell>
        <mxCell id="X3XVsHEC-CsgKgmJ9qrO-64" value="one_moment_info" style="swimlane;fontStyle=0;childLayout=stackLayout;horizontal=1;startSize=26;fillColor=#e0e0e0;horizontalStack=0;resizeParent=1;resizeParentMax=0;resizeLast=0;collapsible=1;marginBottom=0;swimlaneFillColor=#ffffff;align=center;fontSize=14;" vertex="1" parent="1">
          <mxGeometry x="560" y="1650" width="165" height="728" as="geometry"/>
        </mxCell>
        <mxCell id="X3XVsHEC-CsgKgmJ9qrO-65" value="id" style="shape=partialRectangle;top=0;left=0;right=0;bottom=1;align=left;verticalAlign=top;fillColor=none;spacingLeft=34;spacingRight=4;overflow=hidden;rotatable=0;points=[[0,0.5],[1,0.5]];portConstraint=eastwest;dropTarget=0;fontSize=12;" vertex="1" parent="X3XVsHEC-CsgKgmJ9qrO-64">
          <mxGeometry y="26" width="165" height="26" as="geometry"/>
        </mxCell>
        <mxCell id="X3XVsHEC-CsgKgmJ9qrO-66" value="PK" style="shape=partialRectangle;top=0;left=0;bottom=0;fillColor=none;align=left;verticalAlign=top;spacingLeft=4;spacingRight=4;overflow=hidden;rotatable=0;points=[];portConstraint=eastwest;part=1;fontSize=12;" vertex="1" connectable="0" parent="X3XVsHEC-CsgKgmJ9qrO-65">
          <mxGeometry width="30" height="26" as="geometry"/>
        </mxCell>
        <mxCell id="X3XVsHEC-CsgKgmJ9qrO-67" value="gmt_create" style="shape=partialRectangle;top=0;left=0;right=0;bottom=0;align=left;verticalAlign=top;fillColor=none;spacingLeft=34;spacingRight=4;overflow=hidden;rotatable=0;points=[[0,0.5],[1,0.5]];portConstraint=eastwest;dropTarget=0;fontSize=12;" vertex="1" parent="X3XVsHEC-CsgKgmJ9qrO-64">
          <mxGeometry y="52" width="165" height="26" as="geometry"/>
        </mxCell>
        <mxCell id="X3XVsHEC-CsgKgmJ9qrO-68" value="" style="shape=partialRectangle;top=0;left=0;bottom=0;fillColor=none;align=left;verticalAlign=top;spacingLeft=4;spacingRight=4;overflow=hidden;rotatable=0;points=[];portConstraint=eastwest;part=1;fontSize=12;" vertex="1" connectable="0" parent="X3XVsHEC-CsgKgmJ9qrO-67">
          <mxGeometry width="30" height="26" as="geometry"/>
        </mxCell>
        <mxCell id="X3XVsHEC-CsgKgmJ9qrO-69" value="gmt_modified" style="shape=partialRectangle;top=0;left=0;right=0;bottom=0;align=left;verticalAlign=top;fillColor=none;spacingLeft=34;spacingRight=4;overflow=hidden;rotatable=0;points=[[0,0.5],[1,0.5]];portConstraint=eastwest;dropTarget=0;fontSize=12;" vertex="1" parent="X3XVsHEC-CsgKgmJ9qrO-64">
          <mxGeometry y="78" width="165" height="26" as="geometry"/>
        </mxCell>
        <mxCell id="X3XVsHEC-CsgKgmJ9qrO-70" value="" style="shape=partialRectangle;top=0;left=0;bottom=0;fillColor=none;align=left;verticalAlign=top;spacingLeft=4;spacingRight=4;overflow=hidden;rotatable=0;points=[];portConstraint=eastwest;part=1;fontSize=12;" vertex="1" connectable="0" parent="X3XVsHEC-CsgKgmJ9qrO-69">
          <mxGeometry width="30" height="26" as="geometry"/>
        </mxCell>
        <mxCell id="X3XVsHEC-CsgKgmJ9qrO-71" value="user_id" style="shape=partialRectangle;top=0;left=0;right=0;bottom=0;align=left;verticalAlign=top;fillColor=none;spacingLeft=34;spacingRight=4;overflow=hidden;rotatable=0;points=[[0,0.5],[1,0.5]];portConstraint=eastwest;dropTarget=0;fontSize=12;" vertex="1" parent="X3XVsHEC-CsgKgmJ9qrO-64">
          <mxGeometry y="104" width="165" height="26" as="geometry"/>
        </mxCell>
        <mxCell id="X3XVsHEC-CsgKgmJ9qrO-72" value="FK" style="shape=partialRectangle;top=0;left=0;bottom=0;fillColor=none;align=left;verticalAlign=top;spacingLeft=4;spacingRight=4;overflow=hidden;rotatable=0;points=[];portConstraint=eastwest;part=1;fontSize=12;" vertex="1" connectable="0" parent="X3XVsHEC-CsgKgmJ9qrO-71">
          <mxGeometry width="30" height="26" as="geometry"/>
        </mxCell>
        <mxCell id="X3XVsHEC-CsgKgmJ9qrO-73" value="topic_id" style="shape=partialRectangle;top=0;left=0;right=0;bottom=0;align=left;verticalAlign=top;fillColor=none;spacingLeft=34;spacingRight=4;overflow=hidden;rotatable=0;points=[[0,0.5],[1,0.5]];portConstraint=eastwest;dropTarget=0;fontSize=12;" vertex="1" parent="X3XVsHEC-CsgKgmJ9qrO-64">
          <mxGeometry y="130" width="165" height="26" as="geometry"/>
        </mxCell>
        <mxCell id="X3XVsHEC-CsgKgmJ9qrO-74" value="FK" style="shape=partialRectangle;top=0;left=0;bottom=0;fillColor=none;align=left;verticalAlign=top;spacingLeft=4;spacingRight=4;overflow=hidden;rotatable=0;points=[];portConstraint=eastwest;part=1;fontSize=12;" vertex="1" connectable="0" parent="X3XVsHEC-CsgKgmJ9qrO-73">
          <mxGeometry width="30" height="26" as="geometry"/>
        </mxCell>
        <mxCell id="X3XVsHEC-CsgKgmJ9qrO-75" value="type(普通、资源、需求)" style="shape=partialRectangle;top=0;left=0;right=0;bottom=0;align=left;verticalAlign=top;fillColor=none;spacingLeft=34;spacingRight=4;overflow=hidden;rotatable=0;points=[[0,0.5],[1,0.5]];portConstraint=eastwest;dropTarget=0;fontSize=12;" vertex="1" parent="X3XVsHEC-CsgKgmJ9qrO-64">
          <mxGeometry y="156" width="165" height="26" as="geometry"/>
        </mxCell>
        <mxCell id="X3XVsHEC-CsgKgmJ9qrO-76" value="" style="shape=partialRectangle;top=0;left=0;bottom=0;fillColor=none;align=left;verticalAlign=top;spacingLeft=4;spacingRight=4;overflow=hidden;rotatable=0;points=[];portConstraint=eastwest;part=1;fontSize=12;" vertex="1" connectable="0" parent="X3XVsHEC-CsgKgmJ9qrO-75">
          <mxGeometry width="30" height="26" as="geometry"/>
        </mxCell>
        <mxCell id="X3XVsHEC-CsgKgmJ9qrO-77" value="title" style="shape=partialRectangle;top=0;left=0;right=0;bottom=0;align=left;verticalAlign=top;fillColor=none;spacingLeft=34;spacingRight=4;overflow=hidden;rotatable=0;points=[[0,0.5],[1,0.5]];portConstraint=eastwest;dropTarget=0;fontSize=12;" vertex="1" parent="X3XVsHEC-CsgKgmJ9qrO-64">
          <mxGeometry y="182" width="165" height="26" as="geometry"/>
        </mxCell>
        <mxCell id="X3XVsHEC-CsgKgmJ9qrO-78" value="" style="shape=partialRectangle;top=0;left=0;bottom=0;fillColor=none;align=left;verticalAlign=top;spacingLeft=4;spacingRight=4;overflow=hidden;rotatable=0;points=[];portConstraint=eastwest;part=1;fontSize=12;" vertex="1" connectable="0" parent="X3XVsHEC-CsgKgmJ9qrO-77">
          <mxGeometry width="30" height="26" as="geometry"/>
        </mxCell>
        <mxCell id="X3XVsHEC-CsgKgmJ9qrO-79" value="content" style="shape=partialRectangle;top=0;left=0;right=0;bottom=0;align=left;verticalAlign=top;fillColor=none;spacingLeft=34;spacingRight=4;overflow=hidden;rotatable=0;points=[[0,0.5],[1,0.5]];portConstraint=eastwest;dropTarget=0;fontSize=12;" vertex="1" parent="X3XVsHEC-CsgKgmJ9qrO-64">
          <mxGeometry y="208" width="165" height="26" as="geometry"/>
        </mxCell>
        <mxCell id="X3XVsHEC-CsgKgmJ9qrO-80" value="" style="shape=partialRectangle;top=0;left=0;bottom=0;fillColor=none;align=left;verticalAlign=top;spacingLeft=4;spacingRight=4;overflow=hidden;rotatable=0;points=[];portConstraint=eastwest;part=1;fontSize=12;" vertex="1" connectable="0" parent="X3XVsHEC-CsgKgmJ9qrO-79">
          <mxGeometry width="30" height="26" as="geometry"/>
        </mxCell>
        <mxCell id="X3XVsHEC-CsgKgmJ9qrO-81" value="image_01" style="shape=partialRectangle;top=0;left=0;right=0;bottom=0;align=left;verticalAlign=top;fillColor=none;spacingLeft=34;spacingRight=4;overflow=hidden;rotatable=0;points=[[0,0.5],[1,0.5]];portConstraint=eastwest;dropTarget=0;fontSize=12;" vertex="1" parent="X3XVsHEC-CsgKgmJ9qrO-64">
          <mxGeometry y="234" width="165" height="26" as="geometry"/>
        </mxCell>
        <mxCell id="X3XVsHEC-CsgKgmJ9qrO-82" value="" style="shape=partialRectangle;top=0;left=0;bottom=0;fillColor=none;align=left;verticalAlign=top;spacingLeft=4;spacingRight=4;overflow=hidden;rotatable=0;points=[];portConstraint=eastwest;part=1;fontSize=12;" vertex="1" connectable="0" parent="X3XVsHEC-CsgKgmJ9qrO-81">
          <mxGeometry width="30" height="26" as="geometry"/>
        </mxCell>
        <mxCell id="X3XVsHEC-CsgKgmJ9qrO-83" value="image_02" style="shape=partialRectangle;top=0;left=0;right=0;bottom=0;align=left;verticalAlign=top;fillColor=none;spacingLeft=34;spacingRight=4;overflow=hidden;rotatable=0;points=[[0,0.5],[1,0.5]];portConstraint=eastwest;dropTarget=0;fontSize=12;" vertex="1" parent="X3XVsHEC-CsgKgmJ9qrO-64">
          <mxGeometry y="260" width="165" height="26" as="geometry"/>
        </mxCell>
        <mxCell id="X3XVsHEC-CsgKgmJ9qrO-84" value="" style="shape=partialRectangle;top=0;left=0;bottom=0;fillColor=none;align=left;verticalAlign=top;spacingLeft=4;spacingRight=4;overflow=hidden;rotatable=0;points=[];portConstraint=eastwest;part=1;fontSize=12;" vertex="1" connectable="0" parent="X3XVsHEC-CsgKgmJ9qrO-83">
          <mxGeometry width="30" height="26" as="geometry"/>
        </mxCell>
        <mxCell id="X3XVsHEC-CsgKgmJ9qrO-85" value="image_03" style="shape=partialRectangle;top=0;left=0;right=0;bottom=0;align=left;verticalAlign=top;fillColor=none;spacingLeft=34;spacingRight=4;overflow=hidden;rotatable=0;points=[[0,0.5],[1,0.5]];portConstraint=eastwest;dropTarget=0;fontSize=12;" vertex="1" parent="X3XVsHEC-CsgKgmJ9qrO-64">
          <mxGeometry y="286" width="165" height="26" as="geometry"/>
        </mxCell>
        <mxCell id="X3XVsHEC-CsgKgmJ9qrO-86" value="" style="shape=partialRectangle;top=0;left=0;bottom=0;fillColor=none;align=left;verticalAlign=top;spacingLeft=4;spacingRight=4;overflow=hidden;rotatable=0;points=[];portConstraint=eastwest;part=1;fontSize=12;" vertex="1" connectable="0" parent="X3XVsHEC-CsgKgmJ9qrO-85">
          <mxGeometry width="30" height="26" as="geometry"/>
        </mxCell>
        <mxCell id="X3XVsHEC-CsgKgmJ9qrO-87" value="image_04" style="shape=partialRectangle;top=0;left=0;right=0;bottom=0;align=left;verticalAlign=top;fillColor=none;spacingLeft=34;spacingRight=4;overflow=hidden;rotatable=0;points=[[0,0.5],[1,0.5]];portConstraint=eastwest;dropTarget=0;fontSize=12;" vertex="1" parent="X3XVsHEC-CsgKgmJ9qrO-64">
          <mxGeometry y="312" width="165" height="26" as="geometry"/>
        </mxCell>
        <mxCell id="X3XVsHEC-CsgKgmJ9qrO-88" value="" style="shape=partialRectangle;top=0;left=0;bottom=0;fillColor=none;align=left;verticalAlign=top;spacingLeft=4;spacingRight=4;overflow=hidden;rotatable=0;points=[];portConstraint=eastwest;part=1;fontSize=12;" vertex="1" connectable="0" parent="X3XVsHEC-CsgKgmJ9qrO-87">
          <mxGeometry width="30" height="26" as="geometry"/>
        </mxCell>
        <mxCell id="X3XVsHEC-CsgKgmJ9qrO-89" value="image_05" style="shape=partialRectangle;top=0;left=0;right=0;bottom=0;align=left;verticalAlign=top;fillColor=none;spacingLeft=34;spacingRight=4;overflow=hidden;rotatable=0;points=[[0,0.5],[1,0.5]];portConstraint=eastwest;dropTarget=0;fontSize=12;" vertex="1" parent="X3XVsHEC-CsgKgmJ9qrO-64">
          <mxGeometry y="338" width="165" height="26" as="geometry"/>
        </mxCell>
        <mxCell id="X3XVsHEC-CsgKgmJ9qrO-90" value="" style="shape=partialRectangle;top=0;left=0;bottom=0;fillColor=none;align=left;verticalAlign=top;spacingLeft=4;spacingRight=4;overflow=hidden;rotatable=0;points=[];portConstraint=eastwest;part=1;fontSize=12;" vertex="1" connectable="0" parent="X3XVsHEC-CsgKgmJ9qrO-89">
          <mxGeometry width="30" height="26" as="geometry"/>
        </mxCell>
        <mxCell id="X3XVsHEC-CsgKgmJ9qrO-91" value="image_06" style="shape=partialRectangle;top=0;left=0;right=0;bottom=0;align=left;verticalAlign=top;fillColor=none;spacingLeft=34;spacingRight=4;overflow=hidden;rotatable=0;points=[[0,0.5],[1,0.5]];portConstraint=eastwest;dropTarget=0;fontSize=12;" vertex="1" parent="X3XVsHEC-CsgKgmJ9qrO-64">
          <mxGeometry y="364" width="165" height="26" as="geometry"/>
        </mxCell>
        <mxCell id="X3XVsHEC-CsgKgmJ9qrO-92" value="" style="shape=partialRectangle;top=0;left=0;bottom=0;fillColor=none;align=left;verticalAlign=top;spacingLeft=4;spacingRight=4;overflow=hidden;rotatable=0;points=[];portConstraint=eastwest;part=1;fontSize=12;" vertex="1" connectable="0" parent="X3XVsHEC-CsgKgmJ9qrO-91">
          <mxGeometry width="30" height="26" as="geometry"/>
        </mxCell>
        <mxCell id="X3XVsHEC-CsgKgmJ9qrO-93" value="image_07" style="shape=partialRectangle;top=0;left=0;right=0;bottom=0;align=left;verticalAlign=top;fillColor=none;spacingLeft=34;spacingRight=4;overflow=hidden;rotatable=0;points=[[0,0.5],[1,0.5]];portConstraint=eastwest;dropTarget=0;fontSize=12;" vertex="1" parent="X3XVsHEC-CsgKgmJ9qrO-64">
          <mxGeometry y="390" width="165" height="26" as="geometry"/>
        </mxCell>
        <mxCell id="X3XVsHEC-CsgKgmJ9qrO-94" value="" style="shape=partialRectangle;top=0;left=0;bottom=0;fillColor=none;align=left;verticalAlign=top;spacingLeft=4;spacingRight=4;overflow=hidden;rotatable=0;points=[];portConstraint=eastwest;part=1;fontSize=12;" vertex="1" connectable="0" parent="X3XVsHEC-CsgKgmJ9qrO-93">
          <mxGeometry width="30" height="26" as="geometry"/>
        </mxCell>
        <mxCell id="X3XVsHEC-CsgKgmJ9qrO-95" value="image_08" style="shape=partialRectangle;top=0;left=0;right=0;bottom=0;align=left;verticalAlign=top;fillColor=none;spacingLeft=34;spacingRight=4;overflow=hidden;rotatable=0;points=[[0,0.5],[1,0.5]];portConstraint=eastwest;dropTarget=0;fontSize=12;" vertex="1" parent="X3XVsHEC-CsgKgmJ9qrO-64">
          <mxGeometry y="416" width="165" height="26" as="geometry"/>
        </mxCell>
        <mxCell id="X3XVsHEC-CsgKgmJ9qrO-96" value="" style="shape=partialRectangle;top=0;left=0;bottom=0;fillColor=none;align=left;verticalAlign=top;spacingLeft=4;spacingRight=4;overflow=hidden;rotatable=0;points=[];portConstraint=eastwest;part=1;fontSize=12;" vertex="1" connectable="0" parent="X3XVsHEC-CsgKgmJ9qrO-95">
          <mxGeometry width="30" height="26" as="geometry"/>
        </mxCell>
        <mxCell id="X3XVsHEC-CsgKgmJ9qrO-97" value="image_09" style="shape=partialRectangle;top=0;left=0;right=0;bottom=0;align=left;verticalAlign=top;fillColor=none;spacingLeft=34;spacingRight=4;overflow=hidden;rotatable=0;points=[[0,0.5],[1,0.5]];portConstraint=eastwest;dropTarget=0;fontSize=12;" vertex="1" parent="X3XVsHEC-CsgKgmJ9qrO-64">
          <mxGeometry y="442" width="165" height="26" as="geometry"/>
        </mxCell>
        <mxCell id="X3XVsHEC-CsgKgmJ9qrO-98" value="" style="shape=partialRectangle;top=0;left=0;bottom=0;fillColor=none;align=left;verticalAlign=top;spacingLeft=4;spacingRight=4;overflow=hidden;rotatable=0;points=[];portConstraint=eastwest;part=1;fontSize=12;" vertex="1" connectable="0" parent="X3XVsHEC-CsgKgmJ9qrO-97">
          <mxGeometry width="30" height="26" as="geometry"/>
        </mxCell>
        <mxCell id="X3XVsHEC-CsgKgmJ9qrO-99" value="video_01" style="shape=partialRectangle;top=0;left=0;right=0;bottom=0;align=left;verticalAlign=top;fillColor=none;spacingLeft=34;spacingRight=4;overflow=hidden;rotatable=0;points=[[0,0.5],[1,0.5]];portConstraint=eastwest;dropTarget=0;fontSize=12;" vertex="1" parent="X3XVsHEC-CsgKgmJ9qrO-64">
          <mxGeometry y="468" width="165" height="26" as="geometry"/>
        </mxCell>
        <mxCell id="X3XVsHEC-CsgKgmJ9qrO-100" value="" style="shape=partialRectangle;top=0;left=0;bottom=0;fillColor=none;align=left;verticalAlign=top;spacingLeft=4;spacingRight=4;overflow=hidden;rotatable=0;points=[];portConstraint=eastwest;part=1;fontSize=12;" vertex="1" connectable="0" parent="X3XVsHEC-CsgKgmJ9qrO-99">
          <mxGeometry width="30" height="26" as="geometry"/>
        </mxCell>
        <mxCell id="X3XVsHEC-CsgKgmJ9qrO-101" value="status" style="shape=partialRectangle;top=0;left=0;right=0;bottom=0;align=left;verticalAlign=top;fillColor=none;spacingLeft=34;spacingRight=4;overflow=hidden;rotatable=0;points=[[0,0.5],[1,0.5]];portConstraint=eastwest;dropTarget=0;fontSize=12;" vertex="1" parent="X3XVsHEC-CsgKgmJ9qrO-64">
          <mxGeometry y="494" width="165" height="26" as="geometry"/>
        </mxCell>
        <mxCell id="X3XVsHEC-CsgKgmJ9qrO-102" value="" style="shape=partialRectangle;top=0;left=0;bottom=0;fillColor=none;align=left;verticalAlign=top;spacingLeft=4;spacingRight=4;overflow=hidden;rotatable=0;points=[];portConstraint=eastwest;part=1;fontSize=12;" vertex="1" connectable="0" parent="X3XVsHEC-CsgKgmJ9qrO-101">
          <mxGeometry width="30" height="26" as="geometry"/>
        </mxCell>
        <mxCell id="X3XVsHEC-CsgKgmJ9qrO-103" value="hometown_id" style="shape=partialRectangle;top=0;left=0;right=0;bottom=0;align=left;verticalAlign=top;fillColor=none;spacingLeft=34;spacingRight=4;overflow=hidden;rotatable=0;points=[[0,0.5],[1,0.5]];portConstraint=eastwest;dropTarget=0;fontSize=12;" vertex="1" parent="X3XVsHEC-CsgKgmJ9qrO-64">
          <mxGeometry y="520" width="165" height="26" as="geometry"/>
        </mxCell>
        <mxCell id="X3XVsHEC-CsgKgmJ9qrO-104" value="FK" style="shape=partialRectangle;top=0;left=0;bottom=0;fillColor=none;align=left;verticalAlign=top;spacingLeft=4;spacingRight=4;overflow=hidden;rotatable=0;points=[];portConstraint=eastwest;part=1;fontSize=12;" vertex="1" connectable="0" parent="X3XVsHEC-CsgKgmJ9qrO-103">
          <mxGeometry width="30" height="26" as="geometry"/>
        </mxCell>
        <mxCell id="X3XVsHEC-CsgKgmJ9qrO-105" value="hometown_name" style="shape=partialRectangle;top=0;left=0;right=0;bottom=0;align=left;verticalAlign=top;fillColor=none;spacingLeft=34;spacingRight=4;overflow=hidden;rotatable=0;points=[[0,0.5],[1,0.5]];portConstraint=eastwest;dropTarget=0;fontSize=12;" vertex="1" parent="X3XVsHEC-CsgKgmJ9qrO-64">
          <mxGeometry y="546" width="165" height="26" as="geometry"/>
        </mxCell>
        <mxCell id="X3XVsHEC-CsgKgmJ9qrO-106" value="" style="shape=partialRectangle;top=0;left=0;bottom=0;fillColor=none;align=left;verticalAlign=top;spacingLeft=4;spacingRight=4;overflow=hidden;rotatable=0;points=[];portConstraint=eastwest;part=1;fontSize=12;" vertex="1" connectable="0" parent="X3XVsHEC-CsgKgmJ9qrO-105">
          <mxGeometry width="30" height="26" as="geometry"/>
        </mxCell>
        <mxCell id="X3XVsHEC-CsgKgmJ9qrO-107" value="store" style="shape=partialRectangle;top=0;left=0;right=0;bottom=0;align=left;verticalAlign=top;fillColor=none;spacingLeft=34;spacingRight=4;overflow=hidden;rotatable=0;points=[[0,0.5],[1,0.5]];portConstraint=eastwest;dropTarget=0;fontSize=12;" vertex="1" parent="X3XVsHEC-CsgKgmJ9qrO-64">
          <mxGeometry y="572" width="165" height="26" as="geometry"/>
        </mxCell>
        <mxCell id="X3XVsHEC-CsgKgmJ9qrO-108" value="" style="shape=partialRectangle;top=0;left=0;bottom=0;fillColor=none;align=left;verticalAlign=top;spacingLeft=4;spacingRight=4;overflow=hidden;rotatable=0;points=[];portConstraint=eastwest;part=1;fontSize=12;" vertex="1" connectable="0" parent="X3XVsHEC-CsgKgmJ9qrO-107">
          <mxGeometry width="30" height="26" as="geometry"/>
        </mxCell>
        <mxCell id="X3XVsHEC-CsgKgmJ9qrO-109" value="store_url" style="shape=partialRectangle;top=0;left=0;right=0;bottom=0;align=left;verticalAlign=top;fillColor=none;spacingLeft=34;spacingRight=4;overflow=hidden;rotatable=0;points=[[0,0.5],[1,0.5]];portConstraint=eastwest;dropTarget=0;fontSize=12;" vertex="1" parent="X3XVsHEC-CsgKgmJ9qrO-64">
          <mxGeometry y="598" width="165" height="26" as="geometry"/>
        </mxCell>
        <mxCell id="X3XVsHEC-CsgKgmJ9qrO-110" value="" style="shape=partialRectangle;top=0;left=0;bottom=0;fillColor=none;align=left;verticalAlign=top;spacingLeft=4;spacingRight=4;overflow=hidden;rotatable=0;points=[];portConstraint=eastwest;part=1;fontSize=12;" vertex="1" connectable="0" parent="X3XVsHEC-CsgKgmJ9qrO-109">
          <mxGeometry width="30" height="26" as="geometry"/>
        </mxCell>
        <mxCell id="X3XVsHEC-CsgKgmJ9qrO-111" value="endorse_cnt" style="shape=partialRectangle;top=0;left=0;right=0;bottom=0;align=left;verticalAlign=top;fillColor=none;spacingLeft=34;spacingRight=4;overflow=hidden;rotatable=0;points=[[0,0.5],[1,0.5]];portConstraint=eastwest;dropTarget=0;fontSize=12;" vertex="1" parent="X3XVsHEC-CsgKgmJ9qrO-64">
          <mxGeometry y="624" width="165" height="26" as="geometry"/>
        </mxCell>
        <mxCell id="X3XVsHEC-CsgKgmJ9qrO-112" value="" style="shape=partialRectangle;top=0;left=0;bottom=0;fillColor=none;align=left;verticalAlign=top;spacingLeft=4;spacingRight=4;overflow=hidden;rotatable=0;points=[];portConstraint=eastwest;part=1;fontSize=12;" vertex="1" connectable="0" parent="X3XVsHEC-CsgKgmJ9qrO-111">
          <mxGeometry width="30" height="26" as="geometry"/>
        </mxCell>
        <mxCell id="X3XVsHEC-CsgKgmJ9qrO-113" value="comment_cnt" style="shape=partialRectangle;top=0;left=0;right=0;bottom=0;align=left;verticalAlign=top;fillColor=none;spacingLeft=34;spacingRight=4;overflow=hidden;rotatable=0;points=[[0,0.5],[1,0.5]];portConstraint=eastwest;dropTarget=0;fontSize=12;" vertex="1" parent="X3XVsHEC-CsgKgmJ9qrO-64">
          <mxGeometry y="650" width="165" height="26" as="geometry"/>
        </mxCell>
        <mxCell id="X3XVsHEC-CsgKgmJ9qrO-114" value="" style="shape=partialRectangle;top=0;left=0;bottom=0;fillColor=none;align=left;verticalAlign=top;spacingLeft=4;spacingRight=4;overflow=hidden;rotatable=0;points=[];portConstraint=eastwest;part=1;fontSize=12;" vertex="1" connectable="0" parent="X3XVsHEC-CsgKgmJ9qrO-113">
          <mxGeometry width="30" height="26" as="geometry"/>
        </mxCell>
        <mxCell id="X3XVsHEC-CsgKgmJ9qrO-115" value="share_cnt" style="shape=partialRectangle;top=0;left=0;right=0;bottom=0;align=left;verticalAlign=top;fillColor=none;spacingLeft=34;spacingRight=4;overflow=hidden;rotatable=0;points=[[0,0.5],[1,0.5]];portConstraint=eastwest;dropTarget=0;fontSize=12;" vertex="1" parent="X3XVsHEC-CsgKgmJ9qrO-64">
          <mxGeometry y="676" width="165" height="26" as="geometry"/>
        </mxCell>
        <mxCell id="X3XVsHEC-CsgKgmJ9qrO-116" value="" style="shape=partialRectangle;top=0;left=0;bottom=0;fillColor=none;align=left;verticalAlign=top;spacingLeft=4;spacingRight=4;overflow=hidden;rotatable=0;points=[];portConstraint=eastwest;part=1;fontSize=12;" vertex="1" connectable="0" parent="X3XVsHEC-CsgKgmJ9qrO-115">
          <mxGeometry width="30" height="26" as="geometry"/>
        </mxCell>
        <mxCell id="X3XVsHEC-CsgKgmJ9qrO-117" value="visit_cnt" style="shape=partialRectangle;top=0;left=0;right=0;bottom=0;align=left;verticalAlign=top;fillColor=none;spacingLeft=34;spacingRight=4;overflow=hidden;rotatable=0;points=[[0,0.5],[1,0.5]];portConstraint=eastwest;dropTarget=0;fontSize=12;" vertex="1" parent="X3XVsHEC-CsgKgmJ9qrO-64">
          <mxGeometry y="702" width="165" height="26" as="geometry"/>
        </mxCell>
        <mxCell id="X3XVsHEC-CsgKgmJ9qrO-118" value="" style="shape=partialRectangle;top=0;left=0;bottom=0;fillColor=none;align=left;verticalAlign=top;spacingLeft=4;spacingRight=4;overflow=hidden;rotatable=0;points=[];portConstraint=eastwest;part=1;fontSize=12;" vertex="1" connectable="0" parent="X3XVsHEC-CsgKgmJ9qrO-117">
          <mxGeometry width="30" height="26" as="geometry"/>
        </mxCell>
        <mxCell id="X3XVsHEC-CsgKgmJ9qrO-119" value="" style="edgeStyle=entityRelationEdgeStyle;fontSize=12;html=1;endArrow=ERzeroToMany;endFill=1;exitX=1;exitY=0.5;exitDx=0;exitDy=0;entryX=0;entryY=0.5;entryDx=0;entryDy=0;" edge="1" parent="1" source="X3XVsHEC-CsgKgmJ9qrO-3" target="X3XVsHEC-CsgKgmJ9qrO-71">
          <mxGeometry width="100" height="100" relative="1" as="geometry">
            <mxPoint x="480" y="1699" as="sourcePoint"/>
            <mxPoint x="548" y="2000" as="targetPoint"/>
          </mxGeometry>
        </mxCell>
        <mxCell id="X3XVsHEC-CsgKgmJ9qrO-120" value="one_moment_interact" style="swimlane;fontStyle=0;childLayout=stackLayout;horizontal=1;startSize=26;fillColor=#e0e0e0;horizontalStack=0;resizeParent=1;resizeParentMax=0;resizeLast=0;collapsible=1;marginBottom=0;swimlaneFillColor=#ffffff;align=center;fontSize=14;" vertex="1" parent="1">
          <mxGeometry x="565" y="1398" width="165" height="234" as="geometry"/>
        </mxCell>
        <mxCell id="X3XVsHEC-CsgKgmJ9qrO-121" value="id" style="shape=partialRectangle;top=0;left=0;right=0;bottom=1;align=left;verticalAlign=top;fillColor=none;spacingLeft=34;spacingRight=4;overflow=hidden;rotatable=0;points=[[0,0.5],[1,0.5]];portConstraint=eastwest;dropTarget=0;fontSize=12;" vertex="1" parent="X3XVsHEC-CsgKgmJ9qrO-120">
          <mxGeometry y="26" width="165" height="26" as="geometry"/>
        </mxCell>
        <mxCell id="X3XVsHEC-CsgKgmJ9qrO-122" value="PK" style="shape=partialRectangle;top=0;left=0;bottom=0;fillColor=none;align=left;verticalAlign=top;spacingLeft=4;spacingRight=4;overflow=hidden;rotatable=0;points=[];portConstraint=eastwest;part=1;fontSize=12;" vertex="1" connectable="0" parent="X3XVsHEC-CsgKgmJ9qrO-121">
          <mxGeometry width="30" height="26" as="geometry"/>
        </mxCell>
        <mxCell id="X3XVsHEC-CsgKgmJ9qrO-123" value="gmt_create" style="shape=partialRectangle;top=0;left=0;right=0;bottom=0;align=left;verticalAlign=top;fillColor=none;spacingLeft=34;spacingRight=4;overflow=hidden;rotatable=0;points=[[0,0.5],[1,0.5]];portConstraint=eastwest;dropTarget=0;fontSize=12;" vertex="1" parent="X3XVsHEC-CsgKgmJ9qrO-120">
          <mxGeometry y="52" width="165" height="26" as="geometry"/>
        </mxCell>
        <mxCell id="X3XVsHEC-CsgKgmJ9qrO-124" value="" style="shape=partialRectangle;top=0;left=0;bottom=0;fillColor=none;align=left;verticalAlign=top;spacingLeft=4;spacingRight=4;overflow=hidden;rotatable=0;points=[];portConstraint=eastwest;part=1;fontSize=12;" vertex="1" connectable="0" parent="X3XVsHEC-CsgKgmJ9qrO-123">
          <mxGeometry width="30" height="26" as="geometry"/>
        </mxCell>
        <mxCell id="X3XVsHEC-CsgKgmJ9qrO-125" value="gmt_modified" style="shape=partialRectangle;top=0;left=0;right=0;bottom=0;align=left;verticalAlign=top;fillColor=none;spacingLeft=34;spacingRight=4;overflow=hidden;rotatable=0;points=[[0,0.5],[1,0.5]];portConstraint=eastwest;dropTarget=0;fontSize=12;" vertex="1" parent="X3XVsHEC-CsgKgmJ9qrO-120">
          <mxGeometry y="78" width="165" height="26" as="geometry"/>
        </mxCell>
        <mxCell id="X3XVsHEC-CsgKgmJ9qrO-126" value="" style="shape=partialRectangle;top=0;left=0;bottom=0;fillColor=none;align=left;verticalAlign=top;spacingLeft=4;spacingRight=4;overflow=hidden;rotatable=0;points=[];portConstraint=eastwest;part=1;fontSize=12;" vertex="1" connectable="0" parent="X3XVsHEC-CsgKgmJ9qrO-125">
          <mxGeometry width="30" height="26" as="geometry"/>
        </mxCell>
        <mxCell id="X3XVsHEC-CsgKgmJ9qrO-127" value="user_id" style="shape=partialRectangle;top=0;left=0;right=0;bottom=0;align=left;verticalAlign=top;fillColor=none;spacingLeft=34;spacingRight=4;overflow=hidden;rotatable=0;points=[[0,0.5],[1,0.5]];portConstraint=eastwest;dropTarget=0;fontSize=12;" vertex="1" parent="X3XVsHEC-CsgKgmJ9qrO-120">
          <mxGeometry y="104" width="165" height="26" as="geometry"/>
        </mxCell>
        <mxCell id="X3XVsHEC-CsgKgmJ9qrO-128" value="FK" style="shape=partialRectangle;top=0;left=0;bottom=0;fillColor=none;align=left;verticalAlign=top;spacingLeft=4;spacingRight=4;overflow=hidden;rotatable=0;points=[];portConstraint=eastwest;part=1;fontSize=12;" vertex="1" connectable="0" parent="X3XVsHEC-CsgKgmJ9qrO-127">
          <mxGeometry width="30" height="26" as="geometry"/>
        </mxCell>
        <mxCell id="X3XVsHEC-CsgKgmJ9qrO-129" value="moment_id" style="shape=partialRectangle;top=0;left=0;right=0;bottom=0;align=left;verticalAlign=top;fillColor=none;spacingLeft=34;spacingRight=4;overflow=hidden;rotatable=0;points=[[0,0.5],[1,0.5]];portConstraint=eastwest;dropTarget=0;fontSize=12;" vertex="1" parent="X3XVsHEC-CsgKgmJ9qrO-120">
          <mxGeometry y="130" width="165" height="26" as="geometry"/>
        </mxCell>
        <mxCell id="X3XVsHEC-CsgKgmJ9qrO-130" value="FK" style="shape=partialRectangle;top=0;left=0;bottom=0;fillColor=none;align=left;verticalAlign=top;spacingLeft=4;spacingRight=4;overflow=hidden;rotatable=0;points=[];portConstraint=eastwest;part=1;fontSize=12;" vertex="1" connectable="0" parent="X3XVsHEC-CsgKgmJ9qrO-129">
          <mxGeometry width="30" height="26" as="geometry"/>
        </mxCell>
        <mxCell id="X3XVsHEC-CsgKgmJ9qrO-131" value="content" style="shape=partialRectangle;top=0;left=0;right=0;bottom=0;align=left;verticalAlign=top;fillColor=none;spacingLeft=34;spacingRight=4;overflow=hidden;rotatable=0;points=[[0,0.5],[1,0.5]];portConstraint=eastwest;dropTarget=0;fontSize=12;" vertex="1" parent="X3XVsHEC-CsgKgmJ9qrO-120">
          <mxGeometry y="156" width="165" height="26" as="geometry"/>
        </mxCell>
        <mxCell id="X3XVsHEC-CsgKgmJ9qrO-132" value="" style="shape=partialRectangle;top=0;left=0;bottom=0;fillColor=none;align=left;verticalAlign=top;spacingLeft=4;spacingRight=4;overflow=hidden;rotatable=0;points=[];portConstraint=eastwest;part=1;fontSize=12;" vertex="1" connectable="0" parent="X3XVsHEC-CsgKgmJ9qrO-131">
          <mxGeometry width="30" height="26" as="geometry"/>
        </mxCell>
        <mxCell id="X3XVsHEC-CsgKgmJ9qrO-133" value="type" style="shape=partialRectangle;top=0;left=0;right=0;bottom=0;align=left;verticalAlign=top;fillColor=none;spacingLeft=34;spacingRight=4;overflow=hidden;rotatable=0;points=[[0,0.5],[1,0.5]];portConstraint=eastwest;dropTarget=0;fontSize=12;" vertex="1" parent="X3XVsHEC-CsgKgmJ9qrO-120">
          <mxGeometry y="182" width="165" height="26" as="geometry"/>
        </mxCell>
        <mxCell id="X3XVsHEC-CsgKgmJ9qrO-134" value="" style="shape=partialRectangle;top=0;left=0;bottom=0;fillColor=none;align=left;verticalAlign=top;spacingLeft=4;spacingRight=4;overflow=hidden;rotatable=0;points=[];portConstraint=eastwest;part=1;fontSize=12;" vertex="1" connectable="0" parent="X3XVsHEC-CsgKgmJ9qrO-133">
          <mxGeometry width="30" height="26" as="geometry"/>
        </mxCell>
        <mxCell id="X3XVsHEC-CsgKgmJ9qrO-135" value="status" style="shape=partialRectangle;top=0;left=0;right=0;bottom=0;align=left;verticalAlign=top;fillColor=none;spacingLeft=34;spacingRight=4;overflow=hidden;rotatable=0;points=[[0,0.5],[1,0.5]];portConstraint=eastwest;dropTarget=0;fontSize=12;" vertex="1" parent="X3XVsHEC-CsgKgmJ9qrO-120">
          <mxGeometry y="208" width="165" height="26" as="geometry"/>
        </mxCell>
        <mxCell id="X3XVsHEC-CsgKgmJ9qrO-136" value="" style="shape=partialRectangle;top=0;left=0;bottom=0;fillColor=none;align=left;verticalAlign=top;spacingLeft=4;spacingRight=4;overflow=hidden;rotatable=0;points=[];portConstraint=eastwest;part=1;fontSize=12;" vertex="1" connectable="0" parent="X3XVsHEC-CsgKgmJ9qrO-135">
          <mxGeometry width="30" height="26" as="geometry"/>
        </mxCell>
        <mxCell id="X3XVsHEC-CsgKgmJ9qrO-137" value="" style="edgeStyle=entityRelationEdgeStyle;fontSize=12;html=1;endArrow=ERzeroToMany;endFill=1;exitX=1;exitY=0.5;exitDx=0;exitDy=0;" edge="1" parent="1" source="X3XVsHEC-CsgKgmJ9qrO-65" target="X3XVsHEC-CsgKgmJ9qrO-129">
          <mxGeometry width="100" height="100" relative="1" as="geometry">
            <mxPoint x="740" y="1830" as="sourcePoint"/>
            <mxPoint x="830" y="1908" as="targetPoint"/>
          </mxGeometry>
        </mxCell>
        <mxCell id="X3XVsHEC-CsgKgmJ9qrO-138" value="one_topic" style="swimlane;fontStyle=0;childLayout=stackLayout;horizontal=1;startSize=26;fillColor=#e0e0e0;horizontalStack=0;resizeParent=1;resizeParentMax=0;resizeLast=0;collapsible=1;marginBottom=0;swimlaneFillColor=#ffffff;align=center;fontSize=14;" vertex="1" parent="1">
          <mxGeometry x="70" y="2110" width="165" height="234" as="geometry"/>
        </mxCell>
        <mxCell id="X3XVsHEC-CsgKgmJ9qrO-139" value="id" style="shape=partialRectangle;top=0;left=0;right=0;bottom=1;align=left;verticalAlign=top;fillColor=none;spacingLeft=34;spacingRight=4;overflow=hidden;rotatable=0;points=[[0,0.5],[1,0.5]];portConstraint=eastwest;dropTarget=0;fontSize=12;" vertex="1" parent="X3XVsHEC-CsgKgmJ9qrO-138">
          <mxGeometry y="26" width="165" height="26" as="geometry"/>
        </mxCell>
        <mxCell id="X3XVsHEC-CsgKgmJ9qrO-140" value="PK" style="shape=partialRectangle;top=0;left=0;bottom=0;fillColor=none;align=left;verticalAlign=top;spacingLeft=4;spacingRight=4;overflow=hidden;rotatable=0;points=[];portConstraint=eastwest;part=1;fontSize=12;" vertex="1" connectable="0" parent="X3XVsHEC-CsgKgmJ9qrO-139">
          <mxGeometry width="30" height="26" as="geometry"/>
        </mxCell>
        <mxCell id="X3XVsHEC-CsgKgmJ9qrO-141" value="gmt_create" style="shape=partialRectangle;top=0;left=0;right=0;bottom=0;align=left;verticalAlign=top;fillColor=none;spacingLeft=34;spacingRight=4;overflow=hidden;rotatable=0;points=[[0,0.5],[1,0.5]];portConstraint=eastwest;dropTarget=0;fontSize=12;" vertex="1" parent="X3XVsHEC-CsgKgmJ9qrO-138">
          <mxGeometry y="52" width="165" height="26" as="geometry"/>
        </mxCell>
        <mxCell id="X3XVsHEC-CsgKgmJ9qrO-142" value="" style="shape=partialRectangle;top=0;left=0;bottom=0;fillColor=none;align=left;verticalAlign=top;spacingLeft=4;spacingRight=4;overflow=hidden;rotatable=0;points=[];portConstraint=eastwest;part=1;fontSize=12;" vertex="1" connectable="0" parent="X3XVsHEC-CsgKgmJ9qrO-141">
          <mxGeometry width="30" height="26" as="geometry"/>
        </mxCell>
        <mxCell id="X3XVsHEC-CsgKgmJ9qrO-143" value="gmt_modified" style="shape=partialRectangle;top=0;left=0;right=0;bottom=0;align=left;verticalAlign=top;fillColor=none;spacingLeft=34;spacingRight=4;overflow=hidden;rotatable=0;points=[[0,0.5],[1,0.5]];portConstraint=eastwest;dropTarget=0;fontSize=12;" vertex="1" parent="X3XVsHEC-CsgKgmJ9qrO-138">
          <mxGeometry y="78" width="165" height="26" as="geometry"/>
        </mxCell>
        <mxCell id="X3XVsHEC-CsgKgmJ9qrO-144" value="" style="shape=partialRectangle;top=0;left=0;bottom=0;fillColor=none;align=left;verticalAlign=top;spacingLeft=4;spacingRight=4;overflow=hidden;rotatable=0;points=[];portConstraint=eastwest;part=1;fontSize=12;" vertex="1" connectable="0" parent="X3XVsHEC-CsgKgmJ9qrO-143">
          <mxGeometry width="30" height="26" as="geometry"/>
        </mxCell>
        <mxCell id="X3XVsHEC-CsgKgmJ9qrO-145" value="user_id" style="shape=partialRectangle;top=0;left=0;right=0;bottom=0;align=left;verticalAlign=top;fillColor=none;spacingLeft=34;spacingRight=4;overflow=hidden;rotatable=0;points=[[0,0.5],[1,0.5]];portConstraint=eastwest;dropTarget=0;fontSize=12;" vertex="1" parent="X3XVsHEC-CsgKgmJ9qrO-138">
          <mxGeometry y="104" width="165" height="26" as="geometry"/>
        </mxCell>
        <mxCell id="X3XVsHEC-CsgKgmJ9qrO-146" value="FK" style="shape=partialRectangle;top=0;left=0;bottom=0;fillColor=none;align=left;verticalAlign=top;spacingLeft=4;spacingRight=4;overflow=hidden;rotatable=0;points=[];portConstraint=eastwest;part=1;fontSize=12;" vertex="1" connectable="0" parent="X3XVsHEC-CsgKgmJ9qrO-145">
          <mxGeometry width="30" height="26" as="geometry"/>
        </mxCell>
        <mxCell id="X3XVsHEC-CsgKgmJ9qrO-147" value="name" style="shape=partialRectangle;top=0;left=0;right=0;bottom=0;align=left;verticalAlign=top;fillColor=none;spacingLeft=34;spacingRight=4;overflow=hidden;rotatable=0;points=[[0,0.5],[1,0.5]];portConstraint=eastwest;dropTarget=0;fontSize=12;" vertex="1" parent="X3XVsHEC-CsgKgmJ9qrO-138">
          <mxGeometry y="130" width="165" height="26" as="geometry"/>
        </mxCell>
        <mxCell id="X3XVsHEC-CsgKgmJ9qrO-148" value="" style="shape=partialRectangle;top=0;left=0;bottom=0;fillColor=none;align=left;verticalAlign=top;spacingLeft=4;spacingRight=4;overflow=hidden;rotatable=0;points=[];portConstraint=eastwest;part=1;fontSize=12;" vertex="1" connectable="0" parent="X3XVsHEC-CsgKgmJ9qrO-147">
          <mxGeometry width="30" height="26" as="geometry"/>
        </mxCell>
        <mxCell id="X3XVsHEC-CsgKgmJ9qrO-149" value="moment_cnt" style="shape=partialRectangle;top=0;left=0;right=0;bottom=0;align=left;verticalAlign=top;fillColor=none;spacingLeft=34;spacingRight=4;overflow=hidden;rotatable=0;points=[[0,0.5],[1,0.5]];portConstraint=eastwest;dropTarget=0;fontSize=12;" vertex="1" parent="X3XVsHEC-CsgKgmJ9qrO-138">
          <mxGeometry y="156" width="165" height="26" as="geometry"/>
        </mxCell>
        <mxCell id="X3XVsHEC-CsgKgmJ9qrO-150" value="" style="shape=partialRectangle;top=0;left=0;bottom=0;fillColor=none;align=left;verticalAlign=top;spacingLeft=4;spacingRight=4;overflow=hidden;rotatable=0;points=[];portConstraint=eastwest;part=1;fontSize=12;" vertex="1" connectable="0" parent="X3XVsHEC-CsgKgmJ9qrO-149">
          <mxGeometry width="30" height="26" as="geometry"/>
        </mxCell>
        <mxCell id="X3XVsHEC-CsgKgmJ9qrO-151" value="user_cnt" style="shape=partialRectangle;top=0;left=0;right=0;bottom=0;align=left;verticalAlign=top;fillColor=none;spacingLeft=34;spacingRight=4;overflow=hidden;rotatable=0;points=[[0,0.5],[1,0.5]];portConstraint=eastwest;dropTarget=0;fontSize=12;" vertex="1" parent="X3XVsHEC-CsgKgmJ9qrO-138">
          <mxGeometry y="182" width="165" height="26" as="geometry"/>
        </mxCell>
        <mxCell id="X3XVsHEC-CsgKgmJ9qrO-152" value="" style="shape=partialRectangle;top=0;left=0;bottom=0;fillColor=none;align=left;verticalAlign=top;spacingLeft=4;spacingRight=4;overflow=hidden;rotatable=0;points=[];portConstraint=eastwest;part=1;fontSize=12;" vertex="1" connectable="0" parent="X3XVsHEC-CsgKgmJ9qrO-151">
          <mxGeometry width="30" height="26" as="geometry"/>
        </mxCell>
        <mxCell id="X3XVsHEC-CsgKgmJ9qrO-153" value="status" style="shape=partialRectangle;top=0;left=0;right=0;bottom=0;align=left;verticalAlign=top;fillColor=none;spacingLeft=34;spacingRight=4;overflow=hidden;rotatable=0;points=[[0,0.5],[1,0.5]];portConstraint=eastwest;dropTarget=0;fontSize=12;" vertex="1" parent="X3XVsHEC-CsgKgmJ9qrO-138">
          <mxGeometry y="208" width="165" height="26" as="geometry"/>
        </mxCell>
        <mxCell id="X3XVsHEC-CsgKgmJ9qrO-154" value="" style="shape=partialRectangle;top=0;left=0;bottom=0;fillColor=none;align=left;verticalAlign=top;spacingLeft=4;spacingRight=4;overflow=hidden;rotatable=0;points=[];portConstraint=eastwest;part=1;fontSize=12;" vertex="1" connectable="0" parent="X3XVsHEC-CsgKgmJ9qrO-153">
          <mxGeometry width="30" height="26" as="geometry"/>
        </mxCell>
        <mxCell id="X3XVsHEC-CsgKgmJ9qrO-155" value="one_user_topic" style="swimlane;fontStyle=0;childLayout=stackLayout;horizontal=1;startSize=26;fillColor=#e0e0e0;horizontalStack=0;resizeParent=1;resizeParentMax=0;resizeLast=0;collapsible=1;marginBottom=0;swimlaneFillColor=#ffffff;align=center;fontSize=14;" vertex="1" parent="1">
          <mxGeometry x="305" y="2110" width="165" height="156" as="geometry"/>
        </mxCell>
        <mxCell id="X3XVsHEC-CsgKgmJ9qrO-156" value="id" style="shape=partialRectangle;top=0;left=0;right=0;bottom=1;align=left;verticalAlign=top;fillColor=none;spacingLeft=34;spacingRight=4;overflow=hidden;rotatable=0;points=[[0,0.5],[1,0.5]];portConstraint=eastwest;dropTarget=0;fontSize=12;" vertex="1" parent="X3XVsHEC-CsgKgmJ9qrO-155">
          <mxGeometry y="26" width="165" height="26" as="geometry"/>
        </mxCell>
        <mxCell id="X3XVsHEC-CsgKgmJ9qrO-157" value="PK" style="shape=partialRectangle;top=0;left=0;bottom=0;fillColor=none;align=left;verticalAlign=top;spacingLeft=4;spacingRight=4;overflow=hidden;rotatable=0;points=[];portConstraint=eastwest;part=1;fontSize=12;" vertex="1" connectable="0" parent="X3XVsHEC-CsgKgmJ9qrO-156">
          <mxGeometry width="30" height="26" as="geometry"/>
        </mxCell>
        <mxCell id="X3XVsHEC-CsgKgmJ9qrO-158" value="gmt_create" style="shape=partialRectangle;top=0;left=0;right=0;bottom=0;align=left;verticalAlign=top;fillColor=none;spacingLeft=34;spacingRight=4;overflow=hidden;rotatable=0;points=[[0,0.5],[1,0.5]];portConstraint=eastwest;dropTarget=0;fontSize=12;" vertex="1" parent="X3XVsHEC-CsgKgmJ9qrO-155">
          <mxGeometry y="52" width="165" height="26" as="geometry"/>
        </mxCell>
        <mxCell id="X3XVsHEC-CsgKgmJ9qrO-159" value="" style="shape=partialRectangle;top=0;left=0;bottom=0;fillColor=none;align=left;verticalAlign=top;spacingLeft=4;spacingRight=4;overflow=hidden;rotatable=0;points=[];portConstraint=eastwest;part=1;fontSize=12;" vertex="1" connectable="0" parent="X3XVsHEC-CsgKgmJ9qrO-158">
          <mxGeometry width="30" height="26" as="geometry"/>
        </mxCell>
        <mxCell id="X3XVsHEC-CsgKgmJ9qrO-160" value="gmt_modified" style="shape=partialRectangle;top=0;left=0;right=0;bottom=0;align=left;verticalAlign=top;fillColor=none;spacingLeft=34;spacingRight=4;overflow=hidden;rotatable=0;points=[[0,0.5],[1,0.5]];portConstraint=eastwest;dropTarget=0;fontSize=12;" vertex="1" parent="X3XVsHEC-CsgKgmJ9qrO-155">
          <mxGeometry y="78" width="165" height="26" as="geometry"/>
        </mxCell>
        <mxCell id="X3XVsHEC-CsgKgmJ9qrO-161" value="" style="shape=partialRectangle;top=0;left=0;bottom=0;fillColor=none;align=left;verticalAlign=top;spacingLeft=4;spacingRight=4;overflow=hidden;rotatable=0;points=[];portConstraint=eastwest;part=1;fontSize=12;" vertex="1" connectable="0" parent="X3XVsHEC-CsgKgmJ9qrO-160">
          <mxGeometry width="30" height="26" as="geometry"/>
        </mxCell>
        <mxCell id="X3XVsHEC-CsgKgmJ9qrO-162" value="topic_id" style="shape=partialRectangle;top=0;left=0;right=0;bottom=0;align=left;verticalAlign=top;fillColor=none;spacingLeft=34;spacingRight=4;overflow=hidden;rotatable=0;points=[[0,0.5],[1,0.5]];portConstraint=eastwest;dropTarget=0;fontSize=12;" vertex="1" parent="X3XVsHEC-CsgKgmJ9qrO-155">
          <mxGeometry y="104" width="165" height="26" as="geometry"/>
        </mxCell>
        <mxCell id="X3XVsHEC-CsgKgmJ9qrO-163" value="FK" style="shape=partialRectangle;top=0;left=0;bottom=0;fillColor=none;align=left;verticalAlign=top;spacingLeft=4;spacingRight=4;overflow=hidden;rotatable=0;points=[];portConstraint=eastwest;part=1;fontSize=12;" vertex="1" connectable="0" parent="X3XVsHEC-CsgKgmJ9qrO-162">
          <mxGeometry width="30" height="26" as="geometry"/>
        </mxCell>
        <mxCell id="X3XVsHEC-CsgKgmJ9qrO-164" value="user_id" style="shape=partialRectangle;top=0;left=0;right=0;bottom=0;align=left;verticalAlign=top;fillColor=none;spacingLeft=34;spacingRight=4;overflow=hidden;rotatable=0;points=[[0,0.5],[1,0.5]];portConstraint=eastwest;dropTarget=0;fontSize=12;" vertex="1" parent="X3XVsHEC-CsgKgmJ9qrO-155">
          <mxGeometry y="130" width="165" height="26" as="geometry"/>
        </mxCell>
        <mxCell id="X3XVsHEC-CsgKgmJ9qrO-165" value="FK" style="shape=partialRectangle;top=0;left=0;bottom=0;fillColor=none;align=left;verticalAlign=top;spacingLeft=4;spacingRight=4;overflow=hidden;rotatable=0;points=[];portConstraint=eastwest;part=1;fontSize=12;" vertex="1" connectable="0" parent="X3XVsHEC-CsgKgmJ9qrO-164">
          <mxGeometry width="30" height="26" as="geometry"/>
        </mxCell>
        <mxCell id="X3XVsHEC-CsgKgmJ9qrO-166" value="" style="edgeStyle=entityRelationEdgeStyle;fontSize=12;html=1;endArrow=ERzeroToMany;endFill=1;" edge="1" parent="1" source="X3XVsHEC-CsgKgmJ9qrO-3" target="X3XVsHEC-CsgKgmJ9qrO-145">
          <mxGeometry width="100" height="100" relative="1" as="geometry">
            <mxPoint x="240" y="1980" as="sourcePoint"/>
            <mxPoint x="300" y="2160" as="targetPoint"/>
          </mxGeometry>
        </mxCell>
        <mxCell id="X3XVsHEC-CsgKgmJ9qrO-167" value="" style="edgeStyle=entityRelationEdgeStyle;fontSize=12;html=1;endArrow=ERzeroToMany;endFill=1;exitX=1;exitY=0.5;exitDx=0;exitDy=0;entryX=0;entryY=0.5;entryDx=0;entryDy=0;" edge="1" parent="1" source="X3XVsHEC-CsgKgmJ9qrO-139" target="X3XVsHEC-CsgKgmJ9qrO-162">
          <mxGeometry width="100" height="100" relative="1" as="geometry">
            <mxPoint x="220" y="1960" as="sourcePoint"/>
            <mxPoint x="287.5" y="2220" as="targetPoint"/>
          </mxGeometry>
        </mxCell>
        <mxCell id="X3XVsHEC-CsgKgmJ9qrO-168" value="" style="edgeStyle=entityRelationEdgeStyle;fontSize=12;html=1;endArrow=ERzeroToMany;endFill=1;exitX=1;exitY=0.5;exitDx=0;exitDy=0;entryX=0;entryY=0.5;entryDx=0;entryDy=0;" edge="1" parent="1" source="X3XVsHEC-CsgKgmJ9qrO-156" target="X3XVsHEC-CsgKgmJ9qrO-73">
          <mxGeometry width="100" height="100" relative="1" as="geometry">
            <mxPoint x="485" y="2149" as="sourcePoint"/>
            <mxPoint x="555" y="2227" as="targetPoint"/>
          </mxGeometry>
        </mxCell>
        <mxCell id="X3XVsHEC-CsgKgmJ9qrO-169" value="one_label" style="swimlane;fontStyle=0;childLayout=stackLayout;horizontal=1;startSize=26;fillColor=#e0e0e0;horizontalStack=0;resizeParent=1;resizeParentMax=0;resizeLast=0;collapsible=1;marginBottom=0;swimlaneFillColor=#ffffff;align=center;fontSize=14;" vertex="1" parent="1">
          <mxGeometry x="793" y="1398" width="165" height="208" as="geometry"/>
        </mxCell>
        <mxCell id="X3XVsHEC-CsgKgmJ9qrO-170" value="id" style="shape=partialRectangle;top=0;left=0;right=0;bottom=1;align=left;verticalAlign=top;fillColor=none;spacingLeft=34;spacingRight=4;overflow=hidden;rotatable=0;points=[[0,0.5],[1,0.5]];portConstraint=eastwest;dropTarget=0;fontSize=12;" vertex="1" parent="X3XVsHEC-CsgKgmJ9qrO-169">
          <mxGeometry y="26" width="165" height="26" as="geometry"/>
        </mxCell>
        <mxCell id="X3XVsHEC-CsgKgmJ9qrO-171" value="PK" style="shape=partialRectangle;top=0;left=0;bottom=0;fillColor=none;align=left;verticalAlign=top;spacingLeft=4;spacingRight=4;overflow=hidden;rotatable=0;points=[];portConstraint=eastwest;part=1;fontSize=12;" vertex="1" connectable="0" parent="X3XVsHEC-CsgKgmJ9qrO-170">
          <mxGeometry width="30" height="26" as="geometry"/>
        </mxCell>
        <mxCell id="X3XVsHEC-CsgKgmJ9qrO-172" value="gmt_create" style="shape=partialRectangle;top=0;left=0;right=0;bottom=0;align=left;verticalAlign=top;fillColor=none;spacingLeft=34;spacingRight=4;overflow=hidden;rotatable=0;points=[[0,0.5],[1,0.5]];portConstraint=eastwest;dropTarget=0;fontSize=12;" vertex="1" parent="X3XVsHEC-CsgKgmJ9qrO-169">
          <mxGeometry y="52" width="165" height="26" as="geometry"/>
        </mxCell>
        <mxCell id="X3XVsHEC-CsgKgmJ9qrO-173" value="" style="shape=partialRectangle;top=0;left=0;bottom=0;fillColor=none;align=left;verticalAlign=top;spacingLeft=4;spacingRight=4;overflow=hidden;rotatable=0;points=[];portConstraint=eastwest;part=1;fontSize=12;" vertex="1" connectable="0" parent="X3XVsHEC-CsgKgmJ9qrO-172">
          <mxGeometry width="30" height="26" as="geometry"/>
        </mxCell>
        <mxCell id="X3XVsHEC-CsgKgmJ9qrO-174" value="gmt_modified" style="shape=partialRectangle;top=0;left=0;right=0;bottom=0;align=left;verticalAlign=top;fillColor=none;spacingLeft=34;spacingRight=4;overflow=hidden;rotatable=0;points=[[0,0.5],[1,0.5]];portConstraint=eastwest;dropTarget=0;fontSize=12;" vertex="1" parent="X3XVsHEC-CsgKgmJ9qrO-169">
          <mxGeometry y="78" width="165" height="26" as="geometry"/>
        </mxCell>
        <mxCell id="X3XVsHEC-CsgKgmJ9qrO-175" value="" style="shape=partialRectangle;top=0;left=0;bottom=0;fillColor=none;align=left;verticalAlign=top;spacingLeft=4;spacingRight=4;overflow=hidden;rotatable=0;points=[];portConstraint=eastwest;part=1;fontSize=12;" vertex="1" connectable="0" parent="X3XVsHEC-CsgKgmJ9qrO-174">
          <mxGeometry width="30" height="26" as="geometry"/>
        </mxCell>
        <mxCell id="X3XVsHEC-CsgKgmJ9qrO-176" value="user_id" style="shape=partialRectangle;top=0;left=0;right=0;bottom=0;align=left;verticalAlign=top;fillColor=none;spacingLeft=34;spacingRight=4;overflow=hidden;rotatable=0;points=[[0,0.5],[1,0.5]];portConstraint=eastwest;dropTarget=0;fontSize=12;" vertex="1" parent="X3XVsHEC-CsgKgmJ9qrO-169">
          <mxGeometry y="104" width="165" height="26" as="geometry"/>
        </mxCell>
        <mxCell id="X3XVsHEC-CsgKgmJ9qrO-177" value="FK" style="shape=partialRectangle;top=0;left=0;bottom=0;fillColor=none;align=left;verticalAlign=top;spacingLeft=4;spacingRight=4;overflow=hidden;rotatable=0;points=[];portConstraint=eastwest;part=1;fontSize=12;" vertex="1" connectable="0" parent="X3XVsHEC-CsgKgmJ9qrO-176">
          <mxGeometry width="30" height="26" as="geometry"/>
        </mxCell>
        <mxCell id="X3XVsHEC-CsgKgmJ9qrO-178" value="title" style="shape=partialRectangle;top=0;left=0;right=0;bottom=0;align=left;verticalAlign=top;fillColor=none;spacingLeft=34;spacingRight=4;overflow=hidden;rotatable=0;points=[[0,0.5],[1,0.5]];portConstraint=eastwest;dropTarget=0;fontSize=12;" vertex="1" parent="X3XVsHEC-CsgKgmJ9qrO-169">
          <mxGeometry y="130" width="165" height="26" as="geometry"/>
        </mxCell>
        <mxCell id="X3XVsHEC-CsgKgmJ9qrO-179" value="" style="shape=partialRectangle;top=0;left=0;bottom=0;fillColor=none;align=left;verticalAlign=top;spacingLeft=4;spacingRight=4;overflow=hidden;rotatable=0;points=[];portConstraint=eastwest;part=1;fontSize=12;" vertex="1" connectable="0" parent="X3XVsHEC-CsgKgmJ9qrO-178">
          <mxGeometry width="30" height="26" as="geometry"/>
        </mxCell>
        <mxCell id="X3XVsHEC-CsgKgmJ9qrO-180" value="detail" style="shape=partialRectangle;top=0;left=0;right=0;bottom=0;align=left;verticalAlign=top;fillColor=none;spacingLeft=34;spacingRight=4;overflow=hidden;rotatable=0;points=[[0,0.5],[1,0.5]];portConstraint=eastwest;dropTarget=0;fontSize=12;" vertex="1" parent="X3XVsHEC-CsgKgmJ9qrO-169">
          <mxGeometry y="156" width="165" height="26" as="geometry"/>
        </mxCell>
        <mxCell id="X3XVsHEC-CsgKgmJ9qrO-181" value="" style="shape=partialRectangle;top=0;left=0;bottom=0;fillColor=none;align=left;verticalAlign=top;spacingLeft=4;spacingRight=4;overflow=hidden;rotatable=0;points=[];portConstraint=eastwest;part=1;fontSize=12;" vertex="1" connectable="0" parent="X3XVsHEC-CsgKgmJ9qrO-180">
          <mxGeometry width="30" height="26" as="geometry"/>
        </mxCell>
        <mxCell id="X3XVsHEC-CsgKgmJ9qrO-182" value="status" style="shape=partialRectangle;top=0;left=0;right=0;bottom=0;align=left;verticalAlign=top;fillColor=none;spacingLeft=34;spacingRight=4;overflow=hidden;rotatable=0;points=[[0,0.5],[1,0.5]];portConstraint=eastwest;dropTarget=0;fontSize=12;" vertex="1" parent="X3XVsHEC-CsgKgmJ9qrO-169">
          <mxGeometry y="182" width="165" height="26" as="geometry"/>
        </mxCell>
        <mxCell id="X3XVsHEC-CsgKgmJ9qrO-183" value="" style="shape=partialRectangle;top=0;left=0;bottom=0;fillColor=none;align=left;verticalAlign=top;spacingLeft=4;spacingRight=4;overflow=hidden;rotatable=0;points=[];portConstraint=eastwest;part=1;fontSize=12;" vertex="1" connectable="0" parent="X3XVsHEC-CsgKgmJ9qrO-182">
          <mxGeometry width="30" height="26" as="geometry"/>
        </mxCell>
        <mxCell id="X3XVsHEC-CsgKgmJ9qrO-184" value="one_moment_tags" style="swimlane;fontStyle=0;childLayout=stackLayout;horizontal=1;startSize=26;fillColor=#e0e0e0;horizontalStack=0;resizeParent=1;resizeParentMax=0;resizeLast=0;collapsible=1;marginBottom=0;swimlaneFillColor=#ffffff;align=center;fontSize=14;" vertex="1" parent="1">
          <mxGeometry x="793" y="1650" width="165" height="182" as="geometry"/>
        </mxCell>
        <mxCell id="X3XVsHEC-CsgKgmJ9qrO-185" value="id" style="shape=partialRectangle;top=0;left=0;right=0;bottom=1;align=left;verticalAlign=top;fillColor=none;spacingLeft=34;spacingRight=4;overflow=hidden;rotatable=0;points=[[0,0.5],[1,0.5]];portConstraint=eastwest;dropTarget=0;fontSize=12;" vertex="1" parent="X3XVsHEC-CsgKgmJ9qrO-184">
          <mxGeometry y="26" width="165" height="26" as="geometry"/>
        </mxCell>
        <mxCell id="X3XVsHEC-CsgKgmJ9qrO-186" value="PK" style="shape=partialRectangle;top=0;left=0;bottom=0;fillColor=none;align=left;verticalAlign=top;spacingLeft=4;spacingRight=4;overflow=hidden;rotatable=0;points=[];portConstraint=eastwest;part=1;fontSize=12;" vertex="1" connectable="0" parent="X3XVsHEC-CsgKgmJ9qrO-185">
          <mxGeometry width="30" height="26" as="geometry"/>
        </mxCell>
        <mxCell id="X3XVsHEC-CsgKgmJ9qrO-187" value="gmt_create" style="shape=partialRectangle;top=0;left=0;right=0;bottom=0;align=left;verticalAlign=top;fillColor=none;spacingLeft=34;spacingRight=4;overflow=hidden;rotatable=0;points=[[0,0.5],[1,0.5]];portConstraint=eastwest;dropTarget=0;fontSize=12;" vertex="1" parent="X3XVsHEC-CsgKgmJ9qrO-184">
          <mxGeometry y="52" width="165" height="26" as="geometry"/>
        </mxCell>
        <mxCell id="X3XVsHEC-CsgKgmJ9qrO-188" value="" style="shape=partialRectangle;top=0;left=0;bottom=0;fillColor=none;align=left;verticalAlign=top;spacingLeft=4;spacingRight=4;overflow=hidden;rotatable=0;points=[];portConstraint=eastwest;part=1;fontSize=12;" vertex="1" connectable="0" parent="X3XVsHEC-CsgKgmJ9qrO-187">
          <mxGeometry width="30" height="26" as="geometry"/>
        </mxCell>
        <mxCell id="X3XVsHEC-CsgKgmJ9qrO-189" value="gmt_modified" style="shape=partialRectangle;top=0;left=0;right=0;bottom=0;align=left;verticalAlign=top;fillColor=none;spacingLeft=34;spacingRight=4;overflow=hidden;rotatable=0;points=[[0,0.5],[1,0.5]];portConstraint=eastwest;dropTarget=0;fontSize=12;" vertex="1" parent="X3XVsHEC-CsgKgmJ9qrO-184">
          <mxGeometry y="78" width="165" height="26" as="geometry"/>
        </mxCell>
        <mxCell id="X3XVsHEC-CsgKgmJ9qrO-190" value="" style="shape=partialRectangle;top=0;left=0;bottom=0;fillColor=none;align=left;verticalAlign=top;spacingLeft=4;spacingRight=4;overflow=hidden;rotatable=0;points=[];portConstraint=eastwest;part=1;fontSize=12;" vertex="1" connectable="0" parent="X3XVsHEC-CsgKgmJ9qrO-189">
          <mxGeometry width="30" height="26" as="geometry"/>
        </mxCell>
        <mxCell id="X3XVsHEC-CsgKgmJ9qrO-191" value="label_id" style="shape=partialRectangle;top=0;left=0;right=0;bottom=0;align=left;verticalAlign=top;fillColor=none;spacingLeft=34;spacingRight=4;overflow=hidden;rotatable=0;points=[[0,0.5],[1,0.5]];portConstraint=eastwest;dropTarget=0;fontSize=12;" vertex="1" parent="X3XVsHEC-CsgKgmJ9qrO-184">
          <mxGeometry y="104" width="165" height="26" as="geometry"/>
        </mxCell>
        <mxCell id="X3XVsHEC-CsgKgmJ9qrO-192" value="FK" style="shape=partialRectangle;top=0;left=0;bottom=0;fillColor=none;align=left;verticalAlign=top;spacingLeft=4;spacingRight=4;overflow=hidden;rotatable=0;points=[];portConstraint=eastwest;part=1;fontSize=12;" vertex="1" connectable="0" parent="X3XVsHEC-CsgKgmJ9qrO-191">
          <mxGeometry width="30" height="26" as="geometry"/>
        </mxCell>
        <mxCell id="X3XVsHEC-CsgKgmJ9qrO-193" value="info_id" style="shape=partialRectangle;top=0;left=0;right=0;bottom=0;align=left;verticalAlign=top;fillColor=none;spacingLeft=34;spacingRight=4;overflow=hidden;rotatable=0;points=[[0,0.5],[1,0.5]];portConstraint=eastwest;dropTarget=0;fontSize=12;" vertex="1" parent="X3XVsHEC-CsgKgmJ9qrO-184">
          <mxGeometry y="130" width="165" height="26" as="geometry"/>
        </mxCell>
        <mxCell id="X3XVsHEC-CsgKgmJ9qrO-194" value="FK" style="shape=partialRectangle;top=0;left=0;bottom=0;fillColor=none;align=left;verticalAlign=top;spacingLeft=4;spacingRight=4;overflow=hidden;rotatable=0;points=[];portConstraint=eastwest;part=1;fontSize=12;" vertex="1" connectable="0" parent="X3XVsHEC-CsgKgmJ9qrO-193">
          <mxGeometry width="30" height="26" as="geometry"/>
        </mxCell>
        <mxCell id="X3XVsHEC-CsgKgmJ9qrO-195" value="lable_title" style="shape=partialRectangle;top=0;left=0;right=0;bottom=0;align=left;verticalAlign=top;fillColor=none;spacingLeft=34;spacingRight=4;overflow=hidden;rotatable=0;points=[[0,0.5],[1,0.5]];portConstraint=eastwest;dropTarget=0;fontSize=12;" vertex="1" parent="X3XVsHEC-CsgKgmJ9qrO-184">
          <mxGeometry y="156" width="165" height="26" as="geometry"/>
        </mxCell>
        <mxCell id="X3XVsHEC-CsgKgmJ9qrO-196" value="" style="shape=partialRectangle;top=0;left=0;bottom=0;fillColor=none;align=left;verticalAlign=top;spacingLeft=4;spacingRight=4;overflow=hidden;rotatable=0;points=[];portConstraint=eastwest;part=1;fontSize=12;" vertex="1" connectable="0" parent="X3XVsHEC-CsgKgmJ9qrO-195">
          <mxGeometry width="30" height="26" as="geometry"/>
        </mxCell>
        <mxCell id="X3XVsHEC-CsgKgmJ9qrO-197" value="" style="edgeStyle=entityRelationEdgeStyle;fontSize=12;html=1;endArrow=ERzeroToMany;endFill=1;exitX=1;exitY=0.5;exitDx=0;exitDy=0;" edge="1" parent="1" source="X3XVsHEC-CsgKgmJ9qrO-65" target="X3XVsHEC-CsgKgmJ9qrO-193">
          <mxGeometry width="100" height="100" relative="1" as="geometry">
            <mxPoint x="735" y="1699" as="sourcePoint"/>
            <mxPoint x="740" y="1551" as="targetPoint"/>
          </mxGeometry>
        </mxCell>
        <mxCell id="X3XVsHEC-CsgKgmJ9qrO-198" value="" style="edgeStyle=entityRelationEdgeStyle;fontSize=12;html=1;endArrow=ERzeroToMany;endFill=1;" edge="1" parent="1" source="X3XVsHEC-CsgKgmJ9qrO-170" target="X3XVsHEC-CsgKgmJ9qrO-191">
          <mxGeometry width="100" height="100" relative="1" as="geometry">
            <mxPoint x="735" y="1699" as="sourcePoint"/>
            <mxPoint x="740" y="1551" as="targetPoint"/>
          </mxGeometry>
        </mxCell>
        <mxCell id="X3XVsHEC-CsgKgmJ9qrO-201" value="one_user_follwers" style="swimlane;fontStyle=0;childLayout=stackLayout;horizontal=1;startSize=26;fillColor=#e0e0e0;horizontalStack=0;resizeParent=1;resizeParentMax=0;resizeLast=0;collapsible=1;marginBottom=0;swimlaneFillColor=#ffffff;align=center;fontSize=14;" vertex="1" parent="1">
          <mxGeometry x="305" y="1405" width="165" height="182" as="geometry"/>
        </mxCell>
        <mxCell id="X3XVsHEC-CsgKgmJ9qrO-202" value="id" style="shape=partialRectangle;top=0;left=0;right=0;bottom=1;align=left;verticalAlign=top;fillColor=none;spacingLeft=34;spacingRight=4;overflow=hidden;rotatable=0;points=[[0,0.5],[1,0.5]];portConstraint=eastwest;dropTarget=0;fontSize=12;" vertex="1" parent="X3XVsHEC-CsgKgmJ9qrO-201">
          <mxGeometry y="26" width="165" height="26" as="geometry"/>
        </mxCell>
        <mxCell id="X3XVsHEC-CsgKgmJ9qrO-203" value="PK" style="shape=partialRectangle;top=0;left=0;bottom=0;fillColor=none;align=left;verticalAlign=top;spacingLeft=4;spacingRight=4;overflow=hidden;rotatable=0;points=[];portConstraint=eastwest;part=1;fontSize=12;" vertex="1" connectable="0" parent="X3XVsHEC-CsgKgmJ9qrO-202">
          <mxGeometry width="30" height="26" as="geometry"/>
        </mxCell>
        <mxCell id="X3XVsHEC-CsgKgmJ9qrO-204" value="gmt_create" style="shape=partialRectangle;top=0;left=0;right=0;bottom=0;align=left;verticalAlign=top;fillColor=none;spacingLeft=34;spacingRight=4;overflow=hidden;rotatable=0;points=[[0,0.5],[1,0.5]];portConstraint=eastwest;dropTarget=0;fontSize=12;" vertex="1" parent="X3XVsHEC-CsgKgmJ9qrO-201">
          <mxGeometry y="52" width="165" height="26" as="geometry"/>
        </mxCell>
        <mxCell id="X3XVsHEC-CsgKgmJ9qrO-205" value="" style="shape=partialRectangle;top=0;left=0;bottom=0;fillColor=none;align=left;verticalAlign=top;spacingLeft=4;spacingRight=4;overflow=hidden;rotatable=0;points=[];portConstraint=eastwest;part=1;fontSize=12;" vertex="1" connectable="0" parent="X3XVsHEC-CsgKgmJ9qrO-204">
          <mxGeometry width="30" height="26" as="geometry"/>
        </mxCell>
        <mxCell id="X3XVsHEC-CsgKgmJ9qrO-206" value="gmt_modified" style="shape=partialRectangle;top=0;left=0;right=0;bottom=0;align=left;verticalAlign=top;fillColor=none;spacingLeft=34;spacingRight=4;overflow=hidden;rotatable=0;points=[[0,0.5],[1,0.5]];portConstraint=eastwest;dropTarget=0;fontSize=12;" vertex="1" parent="X3XVsHEC-CsgKgmJ9qrO-201">
          <mxGeometry y="78" width="165" height="26" as="geometry"/>
        </mxCell>
        <mxCell id="X3XVsHEC-CsgKgmJ9qrO-207" value="" style="shape=partialRectangle;top=0;left=0;bottom=0;fillColor=none;align=left;verticalAlign=top;spacingLeft=4;spacingRight=4;overflow=hidden;rotatable=0;points=[];portConstraint=eastwest;part=1;fontSize=12;" vertex="1" connectable="0" parent="X3XVsHEC-CsgKgmJ9qrO-206">
          <mxGeometry width="30" height="26" as="geometry"/>
        </mxCell>
        <mxCell id="X3XVsHEC-CsgKgmJ9qrO-208" value="user_id" style="shape=partialRectangle;top=0;left=0;right=0;bottom=0;align=left;verticalAlign=top;fillColor=none;spacingLeft=34;spacingRight=4;overflow=hidden;rotatable=0;points=[[0,0.5],[1,0.5]];portConstraint=eastwest;dropTarget=0;fontSize=12;" vertex="1" parent="X3XVsHEC-CsgKgmJ9qrO-201">
          <mxGeometry y="104" width="165" height="26" as="geometry"/>
        </mxCell>
        <mxCell id="X3XVsHEC-CsgKgmJ9qrO-209" value="FK" style="shape=partialRectangle;top=0;left=0;bottom=0;fillColor=none;align=left;verticalAlign=top;spacingLeft=4;spacingRight=4;overflow=hidden;rotatable=0;points=[];portConstraint=eastwest;part=1;fontSize=12;" vertex="1" connectable="0" parent="X3XVsHEC-CsgKgmJ9qrO-208">
          <mxGeometry width="30" height="26" as="geometry"/>
        </mxCell>
        <mxCell id="X3XVsHEC-CsgKgmJ9qrO-214" value="follwer_user_id" style="shape=partialRectangle;top=0;left=0;right=0;bottom=0;align=left;verticalAlign=top;fillColor=none;spacingLeft=34;spacingRight=4;overflow=hidden;rotatable=0;points=[[0,0.5],[1,0.5]];portConstraint=eastwest;dropTarget=0;fontSize=12;" vertex="1" parent="X3XVsHEC-CsgKgmJ9qrO-201">
          <mxGeometry y="130" width="165" height="26" as="geometry"/>
        </mxCell>
        <mxCell id="X3XVsHEC-CsgKgmJ9qrO-215" value="FK" style="shape=partialRectangle;top=0;left=0;bottom=0;fillColor=none;align=left;verticalAlign=top;spacingLeft=4;spacingRight=4;overflow=hidden;rotatable=0;points=[];portConstraint=eastwest;part=1;fontSize=12;" vertex="1" connectable="0" parent="X3XVsHEC-CsgKgmJ9qrO-214">
          <mxGeometry width="30" height="26" as="geometry"/>
        </mxCell>
        <mxCell id="X3XVsHEC-CsgKgmJ9qrO-210" value="status" style="shape=partialRectangle;top=0;left=0;right=0;bottom=0;align=left;verticalAlign=top;fillColor=none;spacingLeft=34;spacingRight=4;overflow=hidden;rotatable=0;points=[[0,0.5],[1,0.5]];portConstraint=eastwest;dropTarget=0;fontSize=12;" vertex="1" parent="X3XVsHEC-CsgKgmJ9qrO-201">
          <mxGeometry y="156" width="165" height="26" as="geometry"/>
        </mxCell>
        <mxCell id="X3XVsHEC-CsgKgmJ9qrO-211" value="" style="shape=partialRectangle;top=0;left=0;bottom=0;fillColor=none;align=left;verticalAlign=top;spacingLeft=4;spacingRight=4;overflow=hidden;rotatable=0;points=[];portConstraint=eastwest;part=1;fontSize=12;" vertex="1" connectable="0" parent="X3XVsHEC-CsgKgmJ9qrO-210">
          <mxGeometry width="30" height="26" as="geometry"/>
        </mxCell>
        <mxCell id="X3XVsHEC-CsgKgmJ9qrO-216" value="one_moment_collect" style="swimlane;fontStyle=0;childLayout=stackLayout;horizontal=1;startSize=26;fillColor=#e0e0e0;horizontalStack=0;resizeParent=1;resizeParentMax=0;resizeLast=0;collapsible=1;marginBottom=0;swimlaneFillColor=#ffffff;align=center;fontSize=14;" vertex="1" parent="1">
          <mxGeometry x="793" y="1872" width="165" height="182" as="geometry"/>
        </mxCell>
        <mxCell id="X3XVsHEC-CsgKgmJ9qrO-217" value="id" style="shape=partialRectangle;top=0;left=0;right=0;bottom=1;align=left;verticalAlign=top;fillColor=none;spacingLeft=34;spacingRight=4;overflow=hidden;rotatable=0;points=[[0,0.5],[1,0.5]];portConstraint=eastwest;dropTarget=0;fontSize=12;" vertex="1" parent="X3XVsHEC-CsgKgmJ9qrO-216">
          <mxGeometry y="26" width="165" height="26" as="geometry"/>
        </mxCell>
        <mxCell id="X3XVsHEC-CsgKgmJ9qrO-218" value="PK" style="shape=partialRectangle;top=0;left=0;bottom=0;fillColor=none;align=left;verticalAlign=top;spacingLeft=4;spacingRight=4;overflow=hidden;rotatable=0;points=[];portConstraint=eastwest;part=1;fontSize=12;" vertex="1" connectable="0" parent="X3XVsHEC-CsgKgmJ9qrO-217">
          <mxGeometry width="30" height="26" as="geometry"/>
        </mxCell>
        <mxCell id="X3XVsHEC-CsgKgmJ9qrO-219" value="gmt_create" style="shape=partialRectangle;top=0;left=0;right=0;bottom=0;align=left;verticalAlign=top;fillColor=none;spacingLeft=34;spacingRight=4;overflow=hidden;rotatable=0;points=[[0,0.5],[1,0.5]];portConstraint=eastwest;dropTarget=0;fontSize=12;" vertex="1" parent="X3XVsHEC-CsgKgmJ9qrO-216">
          <mxGeometry y="52" width="165" height="26" as="geometry"/>
        </mxCell>
        <mxCell id="X3XVsHEC-CsgKgmJ9qrO-220" value="" style="shape=partialRectangle;top=0;left=0;bottom=0;fillColor=none;align=left;verticalAlign=top;spacingLeft=4;spacingRight=4;overflow=hidden;rotatable=0;points=[];portConstraint=eastwest;part=1;fontSize=12;" vertex="1" connectable="0" parent="X3XVsHEC-CsgKgmJ9qrO-219">
          <mxGeometry width="30" height="26" as="geometry"/>
        </mxCell>
        <mxCell id="X3XVsHEC-CsgKgmJ9qrO-221" value="gmt_modified" style="shape=partialRectangle;top=0;left=0;right=0;bottom=0;align=left;verticalAlign=top;fillColor=none;spacingLeft=34;spacingRight=4;overflow=hidden;rotatable=0;points=[[0,0.5],[1,0.5]];portConstraint=eastwest;dropTarget=0;fontSize=12;" vertex="1" parent="X3XVsHEC-CsgKgmJ9qrO-216">
          <mxGeometry y="78" width="165" height="26" as="geometry"/>
        </mxCell>
        <mxCell id="X3XVsHEC-CsgKgmJ9qrO-222" value="" style="shape=partialRectangle;top=0;left=0;bottom=0;fillColor=none;align=left;verticalAlign=top;spacingLeft=4;spacingRight=4;overflow=hidden;rotatable=0;points=[];portConstraint=eastwest;part=1;fontSize=12;" vertex="1" connectable="0" parent="X3XVsHEC-CsgKgmJ9qrO-221">
          <mxGeometry width="30" height="26" as="geometry"/>
        </mxCell>
        <mxCell id="X3XVsHEC-CsgKgmJ9qrO-223" value="user_id" style="shape=partialRectangle;top=0;left=0;right=0;bottom=0;align=left;verticalAlign=top;fillColor=none;spacingLeft=34;spacingRight=4;overflow=hidden;rotatable=0;points=[[0,0.5],[1,0.5]];portConstraint=eastwest;dropTarget=0;fontSize=12;" vertex="1" parent="X3XVsHEC-CsgKgmJ9qrO-216">
          <mxGeometry y="104" width="165" height="26" as="geometry"/>
        </mxCell>
        <mxCell id="X3XVsHEC-CsgKgmJ9qrO-224" value="FK" style="shape=partialRectangle;top=0;left=0;bottom=0;fillColor=none;align=left;verticalAlign=top;spacingLeft=4;spacingRight=4;overflow=hidden;rotatable=0;points=[];portConstraint=eastwest;part=1;fontSize=12;" vertex="1" connectable="0" parent="X3XVsHEC-CsgKgmJ9qrO-223">
          <mxGeometry width="30" height="26" as="geometry"/>
        </mxCell>
        <mxCell id="X3XVsHEC-CsgKgmJ9qrO-225" value="info_id" style="shape=partialRectangle;top=0;left=0;right=0;bottom=0;align=left;verticalAlign=top;fillColor=none;spacingLeft=34;spacingRight=4;overflow=hidden;rotatable=0;points=[[0,0.5],[1,0.5]];portConstraint=eastwest;dropTarget=0;fontSize=12;" vertex="1" parent="X3XVsHEC-CsgKgmJ9qrO-216">
          <mxGeometry y="130" width="165" height="26" as="geometry"/>
        </mxCell>
        <mxCell id="X3XVsHEC-CsgKgmJ9qrO-226" value="FK" style="shape=partialRectangle;top=0;left=0;bottom=0;fillColor=none;align=left;verticalAlign=top;spacingLeft=4;spacingRight=4;overflow=hidden;rotatable=0;points=[];portConstraint=eastwest;part=1;fontSize=12;" vertex="1" connectable="0" parent="X3XVsHEC-CsgKgmJ9qrO-225">
          <mxGeometry width="30" height="26" as="geometry"/>
        </mxCell>
        <mxCell id="X3XVsHEC-CsgKgmJ9qrO-227" value="info_title" style="shape=partialRectangle;top=0;left=0;right=0;bottom=0;align=left;verticalAlign=top;fillColor=none;spacingLeft=34;spacingRight=4;overflow=hidden;rotatable=0;points=[[0,0.5],[1,0.5]];portConstraint=eastwest;dropTarget=0;fontSize=12;" vertex="1" parent="X3XVsHEC-CsgKgmJ9qrO-216">
          <mxGeometry y="156" width="165" height="26" as="geometry"/>
        </mxCell>
        <mxCell id="X3XVsHEC-CsgKgmJ9qrO-228" value="" style="shape=partialRectangle;top=0;left=0;bottom=0;fillColor=none;align=left;verticalAlign=top;spacingLeft=4;spacingRight=4;overflow=hidden;rotatable=0;points=[];portConstraint=eastwest;part=1;fontSize=12;" vertex="1" connectable="0" parent="X3XVsHEC-CsgKgmJ9qrO-227">
          <mxGeometry width="30" height="26" as="geometry"/>
        </mxCell>
      </root>
    </mxGraphModel>
  </diagram>
</mxfile>
